<svg width="1440" height="1024" viewBox="0 0 1440 1024" fill="none" xmlns="http://www.w3.org/2000/svg">
<g clip-path="url(#clip0_218_91)">
<rect width="1440" height="1024" fill="#F4F5FD"/>
<mask id="mask0_218_91" style="mask-type:alpha" maskUnits="userSpaceOnUse" x="181" y="176" width="1440" height="1024">
<ellipse cx="901" cy="688" rx="720" ry="512" fill="url(#paint0_radial_218_91)"/>
</mask>
<g mask="url(#mask0_218_91)">
<path d="M1542 2022.48C1846.51 2022.48 2122.22 1953.18 2321.81 1841.12C2521.4 1729.07 2644.98 1574.19 2644.98 1403C2644.98 1231.81 2521.4 1076.93 2321.81 964.88C2122.22 852.818 1846.51 783.522 1542 783.522C1237.49 783.522 961.783 852.818 762.186 964.88C562.605 1076.93 439.023 1231.81 439.023 1403C439.023 1574.19 562.605 1729.07 762.186 1841.12C961.783 1953.18 1237.49 2022.48 1542 2022.48Z" stroke="#A4DED6"/>
<path d="M1381.67 2001.37C1675.8 2080.18 1960.05 2084.61 2181.85 2028.02C2403.63 1971.44 2563.09 1853.83 2607.39 1688.47C2651.7 1523.12 2572.42 1341.53 2408.64 1181.64C2244.84 1021.74 1996.47 883.443 1702.33 804.63C1408.2 725.817 1123.95 721.394 902.151 777.978C680.369 834.558 520.912 952.174 476.606 1117.53C432.299 1282.88 511.585 1464.47 675.364 1624.36C839.156 1784.26 1087.53 1922.56 1381.67 2001.37Z" stroke="#A4DED6"/>
<path d="M1381.67 2001.37C1675.8 2080.18 1960.05 2084.61 2181.85 2028.02C2403.63 1971.44 2563.09 1853.83 2607.39 1688.47C2651.7 1523.12 2572.42 1341.53 2408.64 1181.64C2244.84 1021.74 1996.47 883.443 1702.33 804.63C1408.2 725.817 1123.95 721.394 902.151 777.978C680.369 834.558 520.912 952.174 476.606 1117.53C432.299 1282.88 511.585 1464.47 675.364 1624.36C839.156 1784.26 1087.53 1922.56 1381.67 2001.37Z" stroke="#A4DED6"/>
<path d="M1232.26 1939.48C1495.97 2091.74 1769.39 2169.58 1998.28 2172.33C2227.15 2175.08 2411.61 2102.74 2497.21 1954.49C2582.8 1806.24 2553.21 1610.32 2436.4 1413.48C2319.57 1216.64 2115.45 1018.77 1851.74 866.516C1588.03 714.261 1314.61 636.42 1085.72 633.67C856.852 630.921 672.387 703.258 586.793 851.511C501.2 999.764 530.786 1195.68 647.601 1392.52C764.426 1589.36 968.547 1787.23 1232.26 1939.48Z" stroke="#A4DED6"/>
<path d="M1103.96 1841.04C1319.28 2056.36 1563.24 2202.31 1783.61 2264.21C2003.97 2326.1 2200.88 2303.97 2321.92 2182.92C2442.97 2061.87 2465.1 1864.97 2403.21 1644.61C2341.31 1424.24 2195.36 1180.28 1980.04 964.963C1764.72 749.641 1520.76 603.687 1300.39 541.791C1080.03 479.899 883.125 502.029 762.078 623.077C641.03 744.125 618.9 941.027 680.791 1161.39C742.687 1381.76 888.642 1625.72 1103.96 1841.04Z" stroke="#A4DED6"/>
<path d="M1005.52 1712.74C1157.77 1976.45 1355.64 2180.57 1552.48 2297.4C1749.32 2414.21 1945.24 2443.8 2093.49 2358.21C2241.74 2272.61 2314.08 2088.15 2311.33 1859.28C2308.58 1630.39 2230.74 1356.97 2078.48 1093.26C1926.23 829.547 1728.36 625.426 1531.52 508.601C1334.68 391.786 1138.76 362.2 990.511 447.793C842.259 533.387 769.921 717.852 772.67 946.721C775.42 1175.61 853.261 1449.03 1005.52 1712.74Z" stroke="#A4DED6"/>
<path d="M1005.52 1712.74C1157.77 1976.45 1355.64 2180.57 1552.48 2297.4C1749.32 2414.21 1945.24 2443.8 2093.49 2358.21C2241.74 2272.61 2314.08 2088.15 2311.33 1859.28C2308.58 1630.39 2230.74 1356.97 2078.48 1093.26C1926.23 829.547 1728.36 625.426 1531.52 508.601C1334.68 391.786 1138.76 362.2 990.511 447.793C842.259 533.387 769.921 717.852 772.67 946.721C775.42 1175.61 853.261 1449.03 1005.52 1712.74Z" stroke="#A4DED6"/>
<path d="M943.63 1563.33C1022.44 1857.47 1160.74 2105.84 1320.64 2269.64C1480.53 2433.42 1662.12 2512.7 1827.47 2468.39C1992.83 2424.09 2110.44 2264.63 2167.02 2042.85C2223.61 1821.05 2219.18 1536.8 2140.37 1242.67C2061.56 948.533 1923.26 700.156 1763.36 536.364C1603.47 372.585 1421.88 293.299 1256.53 337.605C1091.17 381.912 973.558 541.369 916.978 763.151C860.394 984.951 864.817 1269.2 943.63 1563.33Z" stroke="#A4DED6"/>
<path d="M2161.48 1403C2161.48 1098.49 2092.18 822.783 1980.12 623.186C1868.07 423.605 1713.19 300.023 1542 300.023C1370.81 300.023 1215.93 423.605 1103.88 623.186C991.818 822.783 922.522 1098.49 922.522 1403C922.522 1707.51 991.818 1983.22 1103.88 2182.81C1215.93 2382.4 1370.81 2505.98 1542 2505.98C1713.19 2505.98 1868.07 2382.4 1980.12 2182.81C2092.18 1983.22 2161.48 1707.51 2161.48 1403Z" stroke="#A4DED6"/>
<path d="M2140.37 1563.33C2219.18 1269.2 2223.61 984.951 2167.02 763.151C2110.44 541.369 1992.83 381.912 1827.47 337.606C1662.12 293.299 1480.53 372.585 1320.64 536.364C1160.74 700.156 1022.44 948.533 943.63 1242.67C864.817 1536.8 860.394 1821.05 916.979 2042.85C973.559 2264.63 1091.17 2424.09 1256.53 2468.39C1421.88 2512.7 1603.47 2433.42 1763.36 2269.64C1923.26 2105.84 2061.56 1857.47 2140.37 1563.33Z" stroke="#A4DED6"/>
<path d="M2140.37 1563.33C2219.18 1269.2 2223.61 984.951 2167.02 763.151C2110.44 541.369 1992.83 381.912 1827.47 337.606C1662.12 293.299 1480.53 372.585 1320.64 536.364C1160.74 700.156 1022.44 948.533 943.63 1242.67C864.817 1536.8 860.394 1821.05 916.979 2042.85C973.559 2264.63 1091.17 2424.09 1256.53 2468.39C1421.88 2512.7 1603.47 2433.42 1763.36 2269.64C1923.26 2105.84 2061.56 1857.47 2140.37 1563.33Z" stroke="#A4DED6"/>
<path d="M2078.48 1712.74C2230.74 1449.03 2308.58 1175.61 2311.33 946.721C2314.08 717.852 2241.74 533.387 2093.49 447.794C1945.24 362.2 1749.32 391.786 1552.48 508.601C1355.64 625.426 1157.77 829.547 1005.52 1093.26C853.262 1356.97 775.42 1630.39 772.671 1859.28C769.921 2088.15 842.259 2272.61 990.512 2358.21C1138.76 2443.8 1334.68 2414.21 1531.52 2297.4C1728.36 2180.57 1926.23 1976.45 2078.48 1712.74Z" stroke="#A4DED6"/>
<path d="M1980.04 1841.04C2195.36 1625.72 2341.31 1381.76 2403.21 1161.39C2465.1 941.027 2442.97 744.125 2321.92 623.077C2200.88 502.029 2003.97 479.899 1783.61 541.791C1563.24 603.687 1319.28 749.641 1103.96 964.963C888.642 1180.28 742.687 1424.24 680.791 1644.61C618.899 1864.97 641.03 2061.87 762.077 2182.92C883.125 2303.97 1080.03 2326.1 1300.39 2264.21C1520.76 2202.31 1764.72 2056.36 1980.04 1841.04Z" stroke="#A4DED6"/>
<path d="M1851.74 1939.48C2115.45 1787.23 2319.57 1589.36 2436.4 1392.52C2553.21 1195.68 2582.8 999.764 2497.21 851.511C2411.61 703.259 2227.15 630.921 1998.28 633.67C1769.39 636.42 1495.97 714.261 1232.26 866.516C968.547 1018.77 764.426 1216.64 647.601 1413.48C530.786 1610.32 501.2 1806.24 586.794 1954.49C672.387 2102.74 856.852 2175.08 1085.72 2172.33C1314.61 2169.58 1588.03 2091.74 1851.74 1939.48Z" stroke="#A4DED6"/>
<path d="M1851.74 1939.48C2115.45 1787.23 2319.57 1589.36 2436.4 1392.52C2553.21 1195.68 2582.8 999.764 2497.21 851.511C2411.61 703.259 2227.15 630.921 1998.28 633.67C1769.39 636.42 1495.97 714.261 1232.26 866.516C968.547 1018.77 764.426 1216.64 647.601 1413.48C530.786 1610.32 501.2 1806.24 586.794 1954.49C672.387 2102.74 856.852 2175.08 1085.72 2172.33C1314.61 2169.58 1588.03 2091.74 1851.74 1939.48Z" stroke="#A4DED6"/>
<path d="M1702.33 2001.37C1996.47 1922.56 2244.84 1784.26 2408.64 1624.36C2572.42 1464.47 2651.7 1282.88 2607.39 1117.53C2563.09 952.174 2403.63 834.558 2181.85 777.978C1960.05 721.394 1675.8 725.817 1381.67 804.63C1087.53 883.443 839.156 1021.74 675.364 1181.64C511.585 1341.53 432.299 1523.12 476.605 1688.47C520.912 1853.83 680.369 1971.44 902.151 2028.02C1123.95 2084.61 1408.2 2080.18 1702.33 2001.37Z" stroke="#A4DED6"/>
<path d="M1676.08 2007.79C1973.37 1941.89 2227.55 1814.56 2398.16 1661.95C2568.75 1509.36 2655.88 1331.4 2618.83 1164.27C2581.78 997.142 2427.61 872.683 2208.5 806.483C1989.38 740.277 1705.21 732.297 1407.92 798.206C1110.63 864.114 856.456 991.441 685.845 1144.05C515.247 1296.64 428.116 1474.6 465.168 1641.73C502.22 1808.86 656.395 1933.32 875.498 1999.52C1094.62 2065.72 1378.79 2073.7 1676.08 2007.79Z" stroke="#A4DED6"/>
<path d="M1514.98 2021.89C1819.2 2035.17 2097.67 1977.97 2301.96 1874.72C2506.24 1771.48 2636.46 1622.14 2643.93 1451.11C2651.39 1280.09 2534.69 1119.96 2340.18 999.312C2145.66 878.65 1873.24 797.394 1569.02 784.111C1264.8 770.829 986.333 828.033 782.038 931.282C577.76 1034.52 447.539 1183.86 440.072 1354.89C432.605 1525.91 549.314 1686.04 743.817 1806.69C938.336 1927.35 1210.76 2008.61 1514.98 2021.89Z" stroke="#A4DED6"/>
<path d="M1514.98 2021.89C1819.2 2035.17 2097.67 1977.97 2301.96 1874.72C2506.24 1771.48 2636.46 1622.14 2643.93 1451.11C2651.39 1280.09 2534.69 1119.96 2340.18 999.312C2145.66 878.65 1873.24 797.394 1569.02 784.111C1264.8 770.829 986.333 828.033 782.038 931.282C577.76 1034.52 447.539 1183.86 440.072 1354.89C432.605 1525.91 549.314 1686.04 743.817 1806.69C938.336 1927.35 1210.76 2008.61 1514.98 2021.89Z" stroke="#A4DED6"/>
<path d="M1355.72 1993.81C1646.14 2085.37 1929.92 2102.19 2153.98 2055.34C2378.02 2008.48 2542.45 1897.94 2593.93 1734.67C2645.41 1571.41 2574.12 1386.53 2417.47 1219.65C2260.81 1052.76 2018.7 903.761 1728.28 812.193C1437.86 720.625 1154.08 703.807 930.023 750.663C705.984 797.515 541.549 908.064 490.072 1071.33C438.595 1234.59 509.884 1419.47 666.533 1586.35C823.194 1753.24 1065.3 1902.24 1355.72 1993.81Z" stroke="#A4DED6"/>
<path d="M1209.15 1925.46C1465.98 2089.08 1735.74 2178.77 1964.29 2191.5C2192.82 2204.23 2380.26 2140.01 2472.24 1995.63C2564.22 1851.25 2543.21 1654.23 2435.09 1452.49C2326.96 1250.73 2131.67 1044.15 1874.85 880.537C1618.02 716.924 1348.26 627.23 1119.71 614.5C891.182 601.77 703.737 665.992 611.758 810.37C519.779 954.749 540.791 1151.77 648.91 1353.51C757.037 1555.27 952.333 1761.85 1209.15 1925.46Z" stroke="#A4DED6"/>
<path d="M1085.27 1821.51C1291 2046.02 1528.35 2202.48 1745.82 2273.93C1963.27 2345.37 2160.95 2331.85 2287.16 2216.2C2413.37 2100.55 2444.07 1904.8 2391.85 1681.95C2339.63 1459.08 2204.45 1208.99 1998.73 984.486C1793 759.978 1555.65 603.521 1338.18 532.071C1120.73 460.627 923.052 474.147 796.84 589.8C670.627 705.452 639.929 901.201 692.15 1124.05C744.374 1346.92 879.549 1597 1085.27 1821.51Z" stroke="#A4DED6"/>
<path d="M1085.27 1821.51C1291 2046.02 1528.35 2202.48 1745.82 2273.93C1963.27 2345.37 2160.95 2331.85 2287.16 2216.2C2413.37 2100.55 2444.07 1904.8 2391.85 1681.95C2339.63 1459.08 2204.45 1208.99 1998.73 984.486C1793 759.978 1555.65 603.521 1338.18 532.071C1120.73 460.627 923.052 474.147 796.84 589.8C670.627 705.452 639.929 901.201 692.15 1124.05C744.374 1346.92 879.549 1597 1085.27 1821.51Z" stroke="#A4DED6"/>
<path d="M992.516 1689.04C1133.12 1959.15 1321.9 2171.7 1513.46 2297C1705.01 2422.29 1899.45 2460.4 2051.3 2381.35C2203.14 2302.31 2283.46 2121.17 2290.7 1892.4C2297.93 1663.61 2232.09 1387.06 2091.48 1116.96C1950.88 846.853 1762.1 634.295 1570.54 508.995C1378.99 383.705 1184.55 345.601 1032.7 424.647C880.857 503.692 800.542 684.826 793.305 913.597C786.068 1142.39 851.909 1418.94 992.516 1689.04Z" stroke="#A4DED6"/>
<path d="M2146.79 1268.92C2080.89 971.628 1953.56 717.455 1800.95 546.844C1648.36 376.247 1470.4 289.116 1303.27 326.168C1136.14 363.219 1011.68 517.394 945.483 736.497C879.278 955.618 871.298 1239.79 937.206 1537.08C1003.11 1834.37 1130.44 2088.54 1283.05 2259.16C1435.64 2429.75 1613.6 2516.88 1780.73 2479.83C1947.86 2442.78 2072.32 2288.61 2138.52 2069.5C2204.72 1850.38 2212.7 1566.21 2146.79 1268.92Z" stroke="#A4DED6"/>
<path d="M2160.89 1430.02C2174.17 1125.8 2116.97 847.334 2013.72 643.038C1910.48 438.76 1761.14 308.539 1590.11 301.072C1419.09 293.605 1258.96 410.314 1138.31 604.817C1017.65 799.336 936.394 1071.76 923.112 1375.98C909.829 1680.2 967.033 1958.67 1070.28 2162.96C1173.52 2367.24 1322.86 2497.46 1493.89 2504.93C1664.91 2512.39 1825.04 2395.69 1945.69 2201.18C2066.35 2006.66 2147.61 1734.24 2160.89 1430.02Z" stroke="#A4DED6"/>
<path d="M2160.89 1430.02C2174.17 1125.8 2116.97 847.334 2013.72 643.038C1910.48 438.76 1761.14 308.539 1590.11 301.072C1419.09 293.605 1258.96 410.314 1138.31 604.817C1017.65 799.336 936.394 1071.76 923.112 1375.98C909.829 1680.2 967.033 1958.67 1070.28 2162.96C1173.52 2367.24 1322.86 2497.46 1493.89 2504.93C1664.91 2512.39 1825.04 2395.69 1945.69 2201.18C2066.35 2006.66 2147.61 1734.24 2160.89 1430.02Z" stroke="#A4DED6"/>
<path d="M2132.81 1589.28C2224.38 1298.86 2241.19 1015.08 2194.34 791.023C2147.49 566.984 2036.94 402.549 1873.67 351.072C1710.41 299.595 1525.54 370.884 1358.65 527.533C1191.76 684.194 1042.76 926.303 951.194 1216.72C859.626 1507.14 842.808 1790.92 889.664 2014.98C936.516 2239.02 1047.06 2403.45 1210.33 2454.93C1373.59 2506.41 1558.47 2435.12 1725.35 2278.47C1892.24 2121.81 2041.24 1879.7 2132.81 1589.28Z" stroke="#A4DED6"/>
<path d="M2064.46 1735.85C2228.08 1479.02 2317.77 1209.26 2330.5 980.713C2343.23 752.182 2279.01 564.737 2134.63 472.758C1990.25 380.779 1793.23 401.791 1591.49 509.91C1389.73 618.037 1183.15 813.333 1019.54 1070.15C855.924 1326.98 766.231 1596.74 753.5 1825.29C740.77 2053.82 804.993 2241.26 949.371 2333.24C1093.75 2425.22 1290.77 2404.21 1492.51 2296.09C1694.27 2187.96 1900.85 1992.67 2064.46 1735.85Z" stroke="#A4DED6"/>
<path d="M1960.51 1859.73C2185.02 1654 2341.48 1416.65 2412.93 1199.18C2484.37 981.732 2470.85 784.052 2355.2 657.839C2239.55 531.627 2043.8 500.929 1820.95 553.149C1598.08 605.374 1347.99 740.549 1123.49 946.273C898.978 1152 742.521 1389.35 671.071 1606.82C599.627 1824.27 613.147 2021.95 728.8 2148.16C844.452 2274.37 1040.2 2305.07 1263.05 2252.85C1485.92 2200.63 1736 2065.45 1960.51 1859.73Z" stroke="#A4DED6"/>
<path d="M1960.51 1859.73C2185.02 1654 2341.48 1416.65 2412.93 1199.18C2484.37 981.732 2470.85 784.052 2355.2 657.839C2239.55 531.627 2043.8 500.929 1820.95 553.149C1598.08 605.374 1347.99 740.549 1123.49 946.273C898.978 1152 742.521 1389.35 671.071 1606.82C599.627 1824.27 613.147 2021.95 728.8 2148.16C844.452 2274.37 1040.2 2305.07 1263.05 2252.85C1485.92 2200.63 1736 2065.45 1960.51 1859.73Z" stroke="#A4DED6"/>
<path d="M1828.04 1952.48C2098.15 1811.88 2310.7 1623.1 2436 1431.54C2561.29 1239.99 2599.4 1045.55 2520.35 893.702C2441.31 741.856 2260.17 661.541 2031.4 654.305C1802.61 647.068 1526.06 712.909 1255.96 853.516C985.853 994.123 773.295 1182.9 647.995 1374.46C522.705 1566.01 484.601 1760.45 563.647 1912.3C642.692 2064.14 823.826 2144.46 1052.6 2151.7C1281.39 2158.93 1557.94 2093.09 1828.04 1952.48Z" stroke="#A4DED6"/>
<path d="M1649.57 2013.07C1949.46 1960.19 2208.94 1844.07 2386.05 1699.05C2563.14 1554.04 2657.95 1380.06 2628.22 1211.47C2598.49 1042.88 2449.9 911.817 2233.89 836.123C2017.86 760.423 1734.31 740.055 1434.43 792.933C1134.55 845.81 875.06 961.93 697.955 1106.95C520.864 1251.96 426.053 1425.94 455.78 1594.53C485.506 1763.12 634.105 1894.18 850.112 1969.88C1066.14 2045.58 1349.69 2065.94 1649.57 2013.07Z" stroke="#A4DED6"/>
<path d="M1488.01 2020.12C1791.36 2046.66 2072.06 2001.66 2280.66 1907.42C2489.25 1813.19 2625.86 1669.67 2640.78 1499.13C2655.7 1328.59 2546.09 1163.53 2357.03 1034.51C2167.96 905.481 1899.34 812.419 1595.99 785.879C1292.64 759.339 1011.94 804.342 803.338 898.582C594.75 992.814 458.14 1136.33 443.22 1306.87C428.3 1477.41 537.913 1642.47 726.969 1771.49C916.039 1900.52 1184.66 1993.58 1488.01 2020.12Z" stroke="#A4DED6"/>
<path d="M1488.01 2020.12C1791.36 2046.66 2072.06 2001.66 2280.66 1907.42C2489.25 1813.19 2625.86 1669.67 2640.78 1499.13C2655.7 1328.59 2546.09 1163.53 2357.03 1034.51C2167.96 905.481 1899.34 812.419 1595.99 785.879C1292.64 759.339 1011.94 804.342 803.338 898.582C594.75 992.814 458.14 1136.33 443.22 1306.87C428.3 1477.41 537.913 1642.47 726.969 1771.49C916.039 1900.52 1184.66 1993.58 1488.01 2020.12Z" stroke="#A4DED6"/>
<path d="M1330.13 1985.12C1616.27 2089.27 1899.05 2118.45 2124.94 2081.41C2350.81 2044.37 2519.91 1941.1 2578.46 1780.24C2637.01 1619.38 2573.85 1431.57 2424.63 1258.01C2275.4 1084.44 2040.02 925.029 1753.87 820.881C1467.73 716.732 1184.95 687.552 959.06 724.59C733.191 761.625 564.09 864.896 505.54 1025.76C446.991 1186.62 510.148 1374.43 659.369 1547.99C808.601 1721.56 1043.98 1880.97 1330.13 1985.12Z" stroke="#A4DED6"/>
<path d="M1186.68 1910.45C1436.12 2085.11 1701.71 2186.48 1929.49 2209.17C2157.25 2231.86 2347.32 2175.87 2445.51 2035.64C2543.7 1895.41 2531.3 1697.66 2432.08 1491.4C2332.86 1285.12 2146.76 1070.21 1897.32 895.553C1647.88 720.893 1382.29 619.518 1154.51 596.83C926.751 574.144 736.683 630.129 638.494 770.358C540.305 910.587 552.703 1108.34 651.919 1314.6C751.143 1520.88 937.242 1735.79 1186.68 1910.45Z" stroke="#A4DED6"/>
<path d="M1067.45 1801.19C1263.19 2034.46 1493.49 2201.12 1707.64 2281.99C1921.76 2362.85 2119.84 2357.97 2250.98 2247.93C2382.12 2137.89 2421.32 1943.67 2378.87 1718.75C2336.42 1493.82 2212.28 1238.08 2016.55 1004.81C1820.81 771.538 1590.51 604.878 1376.36 524.01C1162.24 443.148 964.157 448.033 833.02 558.07C701.882 668.107 662.675 862.331 705.126 1087.25C747.579 1312.18 871.716 1567.92 1067.45 1801.19Z" stroke="#A4DED6"/>
<path d="M1067.45 1801.19C1263.19 2034.46 1493.49 2201.12 1707.64 2281.99C1921.76 2362.85 2119.84 2357.97 2250.98 2247.93C2382.12 2137.89 2421.32 1943.67 2378.87 1718.75C2336.42 1493.82 2212.28 1238.08 2016.55 1004.81C1820.81 771.538 1590.51 604.878 1376.36 524.01C1162.24 443.148 964.157 448.033 833.02 558.07C701.882 668.107 662.675 862.331 705.126 1087.25C747.579 1312.18 871.716 1567.92 1067.45 1801.19Z" stroke="#A4DED6"/>
<path d="M980.562 1664.8C1109.25 1940.78 1288.58 2161.37 1474.49 2294.91C1660.39 2428.43 1852.99 2474.98 2008.14 2402.64C2163.29 2330.29 2251.43 2152.83 2268.64 1924.59C2285.84 1696.34 2232.13 1417.18 2103.44 1141.2C1974.75 865.217 1795.42 644.627 1609.51 511.091C1423.61 377.565 1231.01 331.016 1075.86 403.363C920.713 475.71 832.573 653.168 815.365 881.406C798.155 1109.66 851.871 1388.82 980.562 1664.8Z" stroke="#A4DED6"/>
<path d="M2152.07 1295.43C2099.19 995.545 1983.07 736.06 1838.05 558.954C1693.04 381.863 1519.06 287.053 1350.47 316.779C1181.88 346.506 1050.82 495.105 975.123 711.112C899.423 927.136 879.055 1210.69 931.933 1510.57C984.811 1810.46 1100.93 2069.94 1245.95 2247.05C1390.96 2424.14 1564.94 2518.95 1733.53 2489.22C1902.12 2459.49 2033.18 2310.89 2108.88 2094.89C2184.58 1878.86 2204.95 1595.31 2152.07 1295.43Z" stroke="#A4DED6"/>
<path d="M2159.12 1456.99C2185.66 1153.64 2140.66 872.942 2046.42 664.338C1952.19 455.75 1808.67 319.14 1638.13 304.22C1467.6 289.3 1302.53 398.913 1173.51 587.969C1044.48 777.039 951.419 1045.66 924.879 1349.01C898.34 1652.36 943.343 1933.06 1037.58 2141.66C1131.82 2350.25 1275.33 2486.86 1445.87 2501.78C1616.41 2516.7 1781.47 2407.09 1910.49 2218.03C2039.52 2028.96 2132.58 1760.34 2159.12 1456.99Z" stroke="#A4DED6"/>
<path d="M2159.12 1456.99C2185.66 1153.64 2140.66 872.942 2046.42 664.338C1952.19 455.75 1808.67 319.14 1638.13 304.22C1467.6 289.3 1302.53 398.913 1173.51 587.969C1044.48 777.039 951.419 1045.66 924.879 1349.01C898.34 1652.36 943.343 1933.06 1037.58 2141.66C1131.82 2350.25 1275.33 2486.86 1445.87 2501.78C1616.41 2516.7 1781.47 2407.09 1910.49 2218.03C2039.52 2028.96 2132.58 1760.34 2159.12 1456.99Z" stroke="#A4DED6"/>
<path d="M2124.12 1614.87C2228.27 1328.73 2257.45 1045.95 2220.41 820.06C2183.38 594.191 2080.11 425.09 1919.24 366.54C1758.38 307.991 1570.57 371.149 1397.02 520.369C1223.44 669.601 1064.03 904.98 959.882 1191.13C855.733 1477.27 826.553 1760.05 863.591 1985.94C900.626 2211.81 1003.9 2380.91 1164.76 2439.46C1325.62 2498.01 1513.43 2434.85 1686.99 2285.63C1860.56 2136.4 2019.97 1901.02 2124.12 1614.87Z" stroke="#A4DED6"/>
<path d="M2049.45 1758.32C2224.11 1508.88 2325.48 1243.29 2348.17 1015.51C2370.86 787.75 2314.87 597.683 2174.64 499.494C2034.41 401.305 1836.66 413.702 1630.4 512.918C1424.12 612.142 1209.21 798.242 1034.55 1047.68C859.893 1297.12 758.518 1562.71 735.83 1790.49C713.144 2018.25 769.129 2208.32 909.358 2306.51C1049.59 2404.7 1247.34 2392.3 1453.6 2293.08C1659.88 2193.86 1874.79 2007.76 2049.45 1758.32Z" stroke="#A4DED6"/>
<path d="M1940.19 1877.55C2173.46 1681.81 2340.12 1451.51 2420.99 1237.36C2501.85 1023.24 2496.97 825.157 2386.93 694.02C2276.89 562.883 2082.67 523.676 1857.75 566.126C1632.82 608.58 1377.07 732.717 1143.81 928.452C910.538 1124.19 743.877 1354.49 663.009 1568.64C582.148 1782.76 587.033 1980.84 697.07 2111.98C807.107 2243.12 1001.33 2282.32 1226.25 2239.87C1451.18 2197.42 1706.92 2073.28 1940.19 1877.55Z" stroke="#A4DED6"/>
<path d="M1940.19 1877.55C2173.46 1681.81 2340.12 1451.51 2420.99 1237.36C2501.85 1023.24 2496.97 825.157 2386.93 694.02C2276.89 562.883 2082.67 523.676 1857.75 566.126C1632.82 608.58 1377.07 732.717 1143.81 928.452C910.538 1124.19 743.877 1354.49 663.009 1568.64C582.148 1782.76 587.033 1980.84 697.07 2111.98C807.107 2243.12 1001.33 2282.32 1226.25 2239.87C1451.18 2197.42 1706.92 2073.28 1940.19 1877.55Z" stroke="#A4DED6"/>
<path d="M1803.8 1964.44C2079.78 1835.75 2300.37 1656.42 2433.91 1470.51C2567.43 1284.61 2613.98 1092.01 2541.64 936.862C2469.29 781.713 2291.83 693.573 2063.59 676.365C1835.34 659.155 1556.18 712.87 1280.2 841.562C1004.22 970.253 783.627 1149.58 650.091 1335.49C516.565 1521.39 470.016 1713.99 542.363 1869.14C614.71 2024.29 792.168 2112.43 1020.41 2129.63C1248.66 2146.84 1527.82 2093.13 1803.8 1964.44Z" stroke="#A4DED6"/>
<path d="M1622.86 2017.18C1924.76 1977.43 2189.07 1872.74 2372.33 1735.59C2555.58 1598.44 2657.89 1428.76 2635.54 1259.03C2613.2 1089.31 2470.46 951.886 2257.96 866.842C2045.44 781.791 1763.05 749.075 1461.14 788.821C1159.24 828.568 894.934 933.258 711.672 1070.41C528.424 1207.56 426.115 1377.24 448.459 1546.97C470.804 1716.69 613.544 1854.11 826.044 1939.16C1038.56 2024.21 1320.95 2056.93 1622.86 2017.18Z" stroke="#A4DED6"/>
<path d="M1461.14 2017.18C1763.05 2056.93 2045.44 2024.21 2257.96 1939.16C2470.46 1854.11 2613.2 1716.69 2635.54 1546.97C2657.89 1377.24 2555.58 1207.56 2372.33 1070.41C2189.07 933.258 1924.76 828.568 1622.86 788.821C1320.95 749.075 1038.56 781.791 826.044 866.842C613.544 951.886 470.803 1089.31 448.459 1259.03C426.114 1428.76 528.424 1598.44 711.671 1735.59C894.934 1872.74 1159.24 1977.43 1461.14 2017.18Z" stroke="#A4DED6"/>
<path d="M1461.14 2017.18C1763.05 2056.93 2045.44 2024.21 2257.96 1939.16C2470.46 1854.11 2613.2 1716.69 2635.54 1546.97C2657.89 1377.24 2555.58 1207.56 2372.33 1070.41C2189.07 933.258 1924.76 828.568 1622.86 788.821C1320.95 749.075 1038.56 781.791 826.044 866.842C613.544 951.886 470.803 1089.31 448.459 1259.03C426.114 1428.76 528.424 1598.44 711.671 1735.59C894.934 1872.74 1159.24 1977.43 1461.14 2017.18Z" stroke="#A4DED6"/>
<path d="M1304.94 1975.32C1586.27 2091.85 1867.5 2133.34 2094.79 2106.19C2322.06 2079.04 2495.51 1983.25 2561.02 1825.09C2626.53 1666.93 2571.62 1476.55 2430.12 1296.65C2288.6 1116.74 2060.39 947.207 1779.06 830.676C1497.73 714.145 1216.49 672.658 989.206 699.808C761.937 726.956 588.492 822.752 522.981 980.909C457.471 1139.07 512.376 1329.45 653.884 1509.35C795.403 1689.26 1023.6 1858.79 1304.94 1975.32Z" stroke="#A4DED6"/>
<path d="M1164.89 1894.47C1406.47 2079.84 1667.39 2192.7 1893.96 2225.3C2120.51 2257.9 2312.84 2210.26 2417.05 2074.45C2521.26 1938.64 2517.5 1740.53 2427.38 1530.14C2337.25 1319.72 2160.7 1096.91 1919.11 911.535C1677.53 726.161 1416.61 613.297 1190.04 580.695C963.49 548.096 771.162 595.738 666.949 731.55C562.737 867.362 566.497 1065.47 656.622 1275.86C746.753 1486.27 923.301 1709.09 1164.89 1894.47Z" stroke="#A4DED6"/>
<path d="M1050.53 1780.11C1235.91 2021.7 1458.73 2198.25 1669.14 2288.38C1879.53 2378.5 2077.64 2382.26 2213.45 2278.05C2349.26 2173.84 2396.9 1981.51 2364.3 1754.96C2331.7 1528.39 2218.84 1267.47 2033.47 1025.89C1848.09 784.301 1625.28 607.753 1414.86 517.621C1204.47 427.497 1006.36 423.737 870.55 527.949C734.738 632.161 687.096 824.49 719.696 1051.04C752.297 1277.61 865.161 1538.53 1050.53 1780.11Z" stroke="#A4DED6"/>
<path d="M1050.53 1780.11C1235.91 2021.7 1458.73 2198.25 1669.14 2288.38C1879.53 2378.5 2077.64 2382.26 2213.45 2278.05C2349.26 2173.84 2396.9 1981.51 2364.3 1754.96C2331.7 1528.39 2218.84 1267.47 2033.47 1025.89C1848.09 784.301 1625.28 607.753 1414.86 517.621C1204.47 427.497 1006.36 423.737 870.55 527.949C734.738 632.161 687.096 824.49 719.696 1051.04C752.297 1277.61 865.161 1538.53 1050.53 1780.11Z" stroke="#A4DED6"/>
<path d="M969.677 1640.06C1086.21 1921.39 1255.74 2149.6 1435.65 2291.12C1615.55 2432.62 1805.93 2487.53 1964.09 2422.02C2122.25 2356.51 2218.04 2183.06 2245.19 1955.79C2272.34 1728.5 2230.85 1447.27 2114.32 1165.94C1997.79 884.605 1828.26 656.403 1648.35 514.884C1468.45 373.376 1278.07 318.471 1119.91 383.982C961.752 449.492 865.956 622.937 838.808 850.207C811.659 1077.49 853.146 1358.73 969.677 1640.06Z" stroke="#A4DED6"/>
<path d="M2156.18 1322.14C2116.43 1020.24 2011.74 755.934 1874.59 572.671C1737.44 389.423 1567.76 287.114 1398.03 309.459C1228.31 331.803 1090.89 474.544 1005.84 687.043C920.792 899.56 888.075 1181.95 927.822 1483.86C967.568 1785.76 1072.26 2050.07 1209.42 2233.33C1346.56 2416.58 1516.25 2518.89 1685.97 2496.54C1855.69 2474.2 1993.11 2331.46 2078.16 2118.96C2163.21 1906.44 2195.93 1624.05 2156.18 1322.14Z" stroke="#A4DED6"/>
<path d="M2156.18 1483.86C2195.93 1181.95 2163.21 899.56 2078.16 687.043C1993.11 474.544 1855.69 331.803 1685.97 309.459C1516.25 287.114 1346.56 389.424 1209.42 572.671C1072.26 755.934 967.569 1020.24 927.822 1322.14C888.076 1624.05 920.792 1906.44 1005.84 2118.96C1090.89 2331.46 1228.31 2474.2 1398.03 2496.54C1567.76 2518.89 1737.44 2416.58 1874.59 2233.33C2011.74 2050.07 2116.43 1785.76 2156.18 1483.86Z" stroke="#A4DED6"/>
<path d="M2156.18 1483.86C2195.93 1181.95 2163.21 899.56 2078.16 687.043C1993.11 474.544 1855.69 331.803 1685.97 309.459C1516.25 287.114 1346.56 389.424 1209.42 572.671C1072.26 755.934 967.569 1020.24 927.822 1322.14C888.076 1624.05 920.792 1906.44 1005.84 2118.96C1090.89 2331.46 1228.31 2474.2 1398.03 2496.54C1567.76 2518.89 1737.44 2416.58 1874.59 2233.33C2011.74 2050.07 2116.43 1785.76 2156.18 1483.86Z" stroke="#A4DED6"/>
<path d="M2114.32 1640.06C2230.86 1358.73 2272.34 1077.5 2245.19 850.207C2218.05 622.937 2122.25 449.493 1964.09 383.982C1805.94 318.471 1615.55 373.377 1435.65 514.885C1255.74 656.404 1086.21 884.605 969.677 1165.94C853.146 1447.27 811.659 1728.51 838.809 1955.79C865.956 2183.06 961.753 2356.51 1119.91 2422.02C1278.07 2487.53 1468.45 2432.62 1648.35 2291.12C1828.26 2149.6 1997.79 1921.4 2114.32 1640.06Z" stroke="#A4DED6"/>
<path d="M2033.47 1780.11C2218.84 1538.53 2331.7 1277.61 2364.3 1051.04C2396.9 824.49 2349.26 632.162 2213.45 527.949C2077.64 423.737 1879.53 427.497 1669.14 517.622C1458.73 607.753 1235.91 784.301 1050.53 1025.89C865.161 1267.47 752.298 1528.39 719.696 1754.96C687.096 1981.51 734.738 2173.84 870.55 2278.05C1006.36 2382.26 1204.47 2378.5 1414.86 2288.38C1625.28 2198.25 1848.09 2021.7 2033.47 1780.11Z" stroke="#A4DED6"/>
<path d="M1919.11 1894.47C2160.7 1709.09 2337.25 1486.28 2427.38 1275.86C2517.5 1065.47 2521.26 867.362 2417.05 731.55C2312.84 595.738 2120.51 548.096 1893.96 580.695C1667.39 613.297 1406.47 726.161 1164.89 911.535C923.302 1096.91 746.753 1319.73 656.622 1530.14C566.497 1740.53 562.737 1938.64 666.949 2074.45C771.162 2210.26 963.491 2257.9 1190.04 2225.3C1416.61 2192.7 1677.53 2079.84 1919.11 1894.47Z" stroke="#A4DED6"/>
<path d="M1919.11 1894.47C2160.7 1709.09 2337.25 1486.28 2427.38 1275.86C2517.5 1065.47 2521.26 867.362 2417.05 731.55C2312.84 595.738 2120.51 548.096 1893.96 580.695C1667.39 613.297 1406.47 726.161 1164.89 911.535C923.302 1096.91 746.753 1319.73 656.622 1530.14C566.497 1740.53 562.737 1938.64 666.949 2074.45C771.162 2210.26 963.491 2257.9 1190.04 2225.3C1416.61 2192.7 1677.53 2079.84 1919.11 1894.47Z" stroke="#A4DED6"/>
<path d="M1779.06 1975.32C2060.4 1858.79 2288.6 1689.26 2430.12 1509.35C2571.62 1329.45 2626.53 1139.07 2561.02 980.909C2495.51 822.752 2322.06 726.956 2094.79 699.808C1867.51 672.658 1586.27 714.146 1304.94 830.677C1023.61 947.208 795.404 1116.74 653.885 1296.65C512.377 1476.55 457.471 1666.93 522.982 1825.09C588.493 1983.25 761.937 2079.04 989.207 2106.19C1216.5 2133.34 1497.73 2091.85 1779.06 1975.32Z" stroke="#A4DED6"/>
<path d="M1595.99 2020.12C1899.34 1993.58 2167.96 1900.52 2357.03 1771.49C2546.09 1642.47 2655.7 1477.41 2640.78 1306.87C2625.86 1136.33 2489.25 992.814 2280.66 898.582C2072.06 804.342 1791.36 759.339 1488.01 785.879C1184.66 812.419 916.04 905.481 726.969 1034.51C537.913 1163.53 428.3 1328.59 443.22 1499.13C458.14 1669.67 594.751 1813.19 803.338 1907.42C1011.94 2001.66 1292.64 2046.66 1595.99 2020.12Z" stroke="#A4DED6"/>
<path d="M1434.43 2013.07C1734.31 2065.94 2017.86 2045.58 2233.89 1969.88C2449.9 1894.18 2598.49 1763.12 2628.22 1594.53C2657.95 1425.94 2563.14 1251.96 2386.05 1106.95C2208.94 961.93 1949.46 845.81 1649.57 792.933C1349.69 740.055 1066.14 760.423 850.112 836.123C634.105 911.817 485.506 1042.88 455.779 1211.47C426.053 1380.06 520.863 1554.04 697.955 1699.05C875.06 1844.07 1134.55 1960.19 1434.43 2013.07Z" stroke="#A4DED6"/>
<path d="M1434.43 2013.07C1734.31 2065.94 2017.86 2045.58 2233.89 1969.88C2449.9 1894.18 2598.49 1763.12 2628.22 1594.53C2657.95 1425.94 2563.14 1251.96 2386.05 1106.95C2208.94 961.93 1949.46 845.81 1649.57 792.933C1349.69 740.055 1066.14 760.423 850.112 836.123C634.105 911.817 485.506 1042.88 455.779 1211.47C426.053 1380.06 520.863 1554.04 697.955 1699.05C875.06 1844.07 1134.55 1960.19 1434.43 2013.07Z" stroke="#A4DED6"/>
<path d="M1280.2 1964.44C1556.18 2093.13 1835.34 2146.84 2063.59 2129.64C2291.83 2112.43 2469.29 2024.29 2541.64 1869.14C2613.98 1713.99 2567.44 1521.39 2433.91 1335.49C2300.37 1149.58 2079.78 970.253 1803.8 841.562C1527.82 712.87 1248.66 659.155 1020.41 676.365C792.168 693.573 614.71 781.713 542.363 936.862C470.016 1092.01 516.565 1284.61 650.091 1470.51C783.627 1656.42 1004.22 1835.75 1280.2 1964.44Z" stroke="#A4DED6"/>
<path d="M1143.81 1877.55C1377.08 2073.28 1632.82 2197.42 1857.75 2239.87C2082.67 2282.32 2276.89 2243.12 2386.93 2111.98C2496.97 1980.84 2501.85 1782.76 2420.99 1568.64C2340.12 1354.49 2173.46 1124.19 1940.19 928.452C1706.93 732.717 1451.18 608.58 1226.25 566.126C1001.33 523.675 807.108 562.882 697.07 694.02C587.033 825.157 582.149 1023.24 663.01 1237.36C743.878 1451.51 910.539 1681.81 1143.81 1877.55Z" stroke="#A4DED6"/>
<path d="M1034.55 1758.32C1209.21 2007.76 1424.12 2193.86 1630.4 2293.08C1836.66 2392.3 2034.41 2404.7 2174.64 2306.51C2314.87 2208.32 2370.86 2018.25 2348.17 1790.49C2325.48 1562.71 2224.11 1297.12 2049.45 1047.68C1874.79 798.242 1659.88 612.142 1453.6 512.918C1247.34 413.702 1049.59 401.305 909.358 499.494C769.13 597.683 713.144 787.75 735.83 1015.51C758.518 1243.29 859.893 1508.88 1034.55 1758.32Z" stroke="#A4DED6"/>
<path d="M1034.55 1758.32C1209.21 2007.76 1424.12 2193.86 1630.4 2293.08C1836.66 2392.3 2034.41 2404.7 2174.64 2306.51C2314.87 2208.32 2370.86 2018.25 2348.17 1790.49C2325.48 1562.71 2224.11 1297.12 2049.45 1047.68C1874.79 798.242 1659.88 612.142 1453.6 512.918C1247.34 413.702 1049.59 401.305 909.358 499.494C769.13 597.683 713.144 787.75 735.83 1015.51C758.518 1243.29 859.893 1508.88 1034.55 1758.32Z" stroke="#A4DED6"/>
<path d="M959.881 1614.87C1064.03 1901.02 1223.44 2136.4 1397.01 2285.63C1570.57 2434.85 1758.38 2498.01 1919.24 2439.46C2080.1 2380.91 2183.38 2211.81 2220.41 1985.94C2257.45 1760.05 2228.27 1477.27 2124.12 1191.13C2019.97 904.98 1860.56 669.601 1686.99 520.368C1513.43 371.148 1325.62 307.99 1164.76 366.54C1003.9 425.09 900.626 594.191 863.591 820.06C826.553 1045.95 855.733 1328.73 959.881 1614.87Z" stroke="#A4DED6"/>
<path d="M2159.12 1349.01C2132.58 1045.66 2039.52 777.039 1910.49 587.969C1781.47 398.913 1616.41 289.3 1445.87 304.22C1275.33 319.14 1131.82 455.75 1037.58 664.338C943.343 872.942 898.34 1153.64 924.879 1456.99C951.419 1760.34 1044.48 2028.96 1173.51 2218.03C1302.53 2407.09 1467.6 2516.7 1638.13 2501.78C1808.67 2486.86 1952.19 2350.25 2046.42 2141.66C2140.66 1933.06 2185.66 1652.36 2159.12 1349.01Z" stroke="#A4DED6"/>
<path d="M2152.07 1510.57C2204.95 1210.69 2184.58 927.136 2108.88 711.112C2033.18 495.105 1902.12 346.506 1733.53 316.779C1564.94 287.053 1390.96 381.863 1245.95 558.954C1100.93 736.06 984.811 995.545 931.933 1295.43C879.056 1595.31 899.423 1878.86 975.124 2094.89C1050.82 2310.9 1181.88 2459.49 1350.47 2489.22C1519.06 2518.95 1693.04 2424.14 1838.05 2247.05C1983.07 2069.94 2099.19 1810.46 2152.07 1510.57Z" stroke="#A4DED6"/>
<path d="M2152.07 1510.57C2204.95 1210.69 2184.58 927.136 2108.88 711.112C2033.18 495.105 1902.12 346.506 1733.53 316.779C1564.94 287.053 1390.96 381.863 1245.95 558.954C1100.93 736.06 984.811 995.545 931.933 1295.43C879.056 1595.31 899.423 1878.86 975.124 2094.89C1050.82 2310.9 1181.88 2459.49 1350.47 2489.22C1519.06 2518.95 1693.04 2424.14 1838.05 2247.05C1983.07 2069.94 2099.19 1810.46 2152.07 1510.57Z" stroke="#A4DED6"/>
<path d="M2103.44 1664.8C2232.13 1388.82 2285.85 1109.66 2268.64 881.406C2251.43 653.168 2163.29 475.71 2008.14 403.363C1852.99 331.016 1660.39 377.565 1474.49 511.091C1288.58 644.628 1109.25 865.217 980.563 1141.2C851.871 1417.18 798.156 1696.34 815.366 1924.59C832.574 2152.83 920.714 2330.29 1075.86 2402.64C1231.01 2474.98 1423.61 2428.44 1609.51 2294.91C1795.42 2161.37 1974.75 1940.78 2103.44 1664.8Z" stroke="#A4DED6"/>
<path d="M2016.55 1801.19C2212.28 1567.92 2336.42 1312.18 2378.87 1087.25C2421.32 862.331 2382.12 668.108 2250.98 558.07C2119.84 448.033 1921.76 443.148 1707.64 524.01C1493.49 604.878 1263.19 771.539 1067.45 1004.81C871.717 1238.08 747.58 1493.82 705.126 1718.75C662.676 1943.67 701.883 2137.89 833.02 2247.93C964.157 2357.97 1162.24 2362.85 1376.36 2281.99C1590.51 2201.12 1820.81 2034.46 2016.55 1801.19Z" stroke="#A4DED6"/>
<path d="M1897.32 1910.45C2146.76 1735.79 2332.86 1520.88 2432.08 1314.6C2531.3 1108.34 2543.7 910.587 2445.51 770.358C2347.32 630.129 2157.25 574.144 1929.49 596.83C1701.71 619.518 1436.12 720.893 1186.68 895.553C937.242 1070.21 751.142 1285.12 651.918 1491.4C552.702 1697.66 540.305 1895.41 638.494 2035.64C736.683 2175.87 926.75 2231.86 1154.51 2209.17C1382.29 2186.48 1647.88 2085.11 1897.32 1910.45Z" stroke="#A4DED6"/>
<path d="M1897.32 1910.45C2146.76 1735.79 2332.86 1520.88 2432.08 1314.6C2531.3 1108.34 2543.7 910.587 2445.51 770.358C2347.32 630.129 2157.25 574.144 1929.49 596.83C1701.71 619.518 1436.12 720.893 1186.68 895.553C937.242 1070.21 751.142 1285.12 651.918 1491.4C552.702 1697.66 540.305 1895.41 638.494 2035.64C736.683 2175.87 926.75 2231.86 1154.51 2209.17C1382.29 2186.48 1647.88 2085.11 1897.32 1910.45Z" stroke="#A4DED6"/>
<path d="M1753.87 1985.12C2040.02 1880.97 2275.4 1721.56 2424.63 1547.99C2573.85 1374.43 2637.01 1186.62 2578.46 1025.76C2519.91 864.896 2350.81 761.625 2124.94 724.59C1899.05 687.552 1616.27 716.732 1330.13 820.881C1043.98 925.029 808.601 1084.44 659.368 1258.01C510.148 1431.57 446.99 1619.38 505.54 1780.24C564.089 1941.1 733.191 2044.38 959.06 2081.41C1184.95 2118.45 1467.73 2089.27 1753.87 1985.12Z" stroke="#A4DED6"/>
<path d="M1569.02 2021.89C1873.24 2008.61 2145.66 1927.35 2340.18 1806.69C2534.69 1686.04 2651.4 1525.91 2643.93 1354.89C2636.46 1183.86 2506.24 1034.52 2301.96 931.282C2097.67 828.033 1819.2 770.829 1514.98 784.111C1210.76 797.394 938.337 878.65 743.818 999.312C549.315 1119.96 432.606 1280.09 440.073 1451.11C447.54 1622.14 577.76 1771.48 782.039 1874.72C986.334 1977.97 1264.8 2035.17 1569.02 2021.89Z" stroke="#A4DED6"/>
<path d="M1407.92 2007.79C1705.21 2073.7 1989.38 2065.72 2208.5 1999.52C2427.61 1933.32 2581.78 1808.86 2618.83 1641.73C2655.88 1474.6 2568.75 1296.64 2398.16 1144.05C2227.55 991.441 1973.37 864.114 1676.08 798.206C1378.79 732.298 1094.62 740.277 875.497 806.483C656.394 872.683 502.22 997.142 465.168 1164.27C428.116 1331.4 515.247 1509.36 685.844 1661.95C856.455 1814.56 1110.63 1941.89 1407.92 2007.79Z" stroke="#A4DED6"/>
<path d="M1407.92 2007.79C1705.21 2073.7 1989.38 2065.72 2208.5 1999.52C2427.61 1933.32 2581.78 1808.86 2618.83 1641.73C2655.88 1474.6 2568.75 1296.64 2398.16 1144.05C2227.55 991.441 1973.37 864.114 1676.08 798.206C1378.79 732.298 1094.62 740.277 875.497 806.483C656.394 872.683 502.22 997.142 465.168 1164.27C428.116 1331.4 515.247 1509.36 685.844 1661.95C856.455 1814.56 1110.63 1941.89 1407.92 2007.79Z" stroke="#A4DED6"/>
<path d="M1255.96 1952.48C1526.06 2093.09 1802.61 2158.93 2031.4 2151.7C2260.17 2144.46 2441.31 2064.14 2520.35 1912.3C2599.4 1760.45 2561.29 1566.01 2436 1374.46C2310.7 1182.9 2098.15 994.123 1828.04 853.516C1557.94 712.909 1281.39 647.068 1052.6 654.305C823.826 661.541 642.692 741.856 563.647 893.702C484.601 1045.55 522.705 1239.99 647.995 1431.54C773.295 1623.1 985.852 1811.88 1255.96 1952.48Z" stroke="#A4DED6"/>
<path d="M1123.49 1859.73C1347.99 2065.45 1598.08 2200.63 1820.95 2252.85C2043.8 2305.07 2239.55 2274.37 2355.2 2148.16C2470.85 2021.95 2484.37 1824.27 2412.93 1606.82C2341.48 1389.35 2185.02 1152 1960.51 946.273C1736.01 740.548 1485.92 605.374 1263.05 553.149C1040.2 500.929 844.452 531.627 728.8 657.839C613.147 784.052 599.627 981.732 671.071 1199.18C742.521 1416.65 898.978 1654 1123.49 1859.73Z" stroke="#A4DED6"/>
<path d="M1019.54 1735.85C1183.15 1992.67 1389.73 2187.96 1591.49 2296.09C1793.23 2404.21 1990.25 2425.22 2134.63 2333.24C2279.01 2241.26 2343.23 2053.82 2330.5 1825.29C2317.77 1596.74 2228.08 1326.98 2064.46 1070.15C1900.85 813.333 1694.27 618.037 1492.51 509.91C1290.77 401.791 1093.75 380.779 949.371 472.758C804.993 564.737 740.77 752.182 753.5 980.713C766.231 1209.26 855.924 1479.02 1019.54 1735.85Z" stroke="#A4DED6"/>
<path d="M1019.54 1735.85C1183.15 1992.67 1389.73 2187.96 1591.49 2296.09C1793.23 2404.21 1990.25 2425.22 2134.63 2333.24C2279.01 2241.26 2343.23 2053.82 2330.5 1825.29C2317.77 1596.74 2228.08 1326.98 2064.46 1070.15C1900.85 813.333 1694.27 618.037 1492.51 509.91C1290.77 401.791 1093.75 380.779 949.371 472.758C804.993 564.737 740.77 752.182 753.5 980.713C766.231 1209.26 855.924 1479.02 1019.54 1735.85Z" stroke="#A4DED6"/>
<path d="M951.193 1589.28C1042.76 1879.7 1191.76 2121.81 1358.65 2278.47C1525.53 2435.12 1710.41 2506.41 1873.67 2454.93C2036.94 2403.45 2147.49 2239.02 2194.34 2014.98C2241.19 1790.92 2224.38 1507.14 2132.81 1216.72C2041.24 926.302 1892.24 684.194 1725.35 527.533C1558.47 370.884 1373.59 299.594 1210.33 351.071C1047.06 402.549 936.515 566.984 889.663 791.023C842.807 1015.08 859.625 1298.86 951.193 1589.28Z" stroke="#A4DED6"/>
<path d="M2160.89 1375.98C2147.61 1071.76 2066.35 799.337 1945.69 604.818C1825.04 410.314 1664.91 293.605 1493.89 301.072C1322.86 308.539 1173.52 438.76 1070.28 643.039C967.033 847.334 909.829 1125.8 923.112 1430.02C936.394 1734.24 1017.65 2006.66 1138.31 2201.18C1258.97 2395.69 1419.09 2512.39 1590.11 2504.93C1761.14 2497.46 1910.48 2367.24 2013.72 2162.96C2116.97 1958.67 2174.17 1680.2 2160.89 1375.98Z" stroke="#A4DED6"/>
<path d="M2146.8 1537.08C2212.7 1239.79 2204.72 955.618 2138.52 736.497C2072.32 517.394 1947.86 363.22 1780.73 326.168C1613.6 289.116 1435.64 376.247 1283.05 546.844C1130.44 717.456 1003.11 971.629 937.206 1268.92C871.298 1566.21 879.278 1850.38 945.483 2069.5C1011.68 2288.61 1136.14 2442.78 1303.27 2479.83C1470.4 2516.88 1648.36 2429.75 1800.95 2259.16C1953.56 2088.55 2080.89 1834.37 2146.8 1537.08Z" stroke="#A4DED6"/>
<path d="M2146.8 1537.08C2212.7 1239.79 2204.72 955.618 2138.52 736.497C2072.32 517.394 1947.86 363.22 1780.73 326.168C1613.6 289.116 1435.64 376.247 1283.05 546.844C1130.44 717.456 1003.11 971.629 937.206 1268.92C871.298 1566.21 879.278 1850.38 945.483 2069.5C1011.68 2288.61 1136.14 2442.78 1303.27 2479.83C1470.4 2516.88 1648.36 2429.75 1800.95 2259.16C1953.56 2088.55 2080.89 1834.37 2146.8 1537.08Z" stroke="#A4DED6"/>
<path d="M2091.48 1689.04C2232.09 1418.94 2297.93 1142.39 2290.7 913.598C2283.46 684.827 2203.14 503.693 2051.3 424.647C1899.45 345.602 1705.01 383.705 1513.46 508.995C1321.9 634.296 1133.12 846.853 992.517 1116.96C851.909 1387.06 786.069 1663.61 793.306 1892.4C800.542 2121.17 880.857 2302.31 1032.7 2381.35C1184.55 2460.4 1378.99 2422.29 1570.54 2297C1762.1 2171.7 1950.88 1959.15 2091.48 1689.04Z" stroke="#A4DED6"/>
<path d="M1998.73 1821.51C2204.45 1597.01 2339.63 1346.92 2391.85 1124.05C2444.07 901.201 2413.37 705.452 2287.16 589.8C2160.95 474.147 1963.27 460.627 1745.82 532.071C1528.35 603.521 1291 759.978 1085.27 984.486C879.549 1208.99 744.375 1459.08 692.15 1681.95C639.929 1904.8 670.627 2100.55 796.84 2216.2C923.052 2331.85 1120.73 2345.37 1338.18 2273.93C1555.65 2202.48 1793 2046.02 1998.73 1821.51Z" stroke="#A4DED6"/>
<path d="M1874.85 1925.46C2131.67 1761.85 2326.96 1555.27 2435.09 1353.51C2543.21 1151.77 2564.22 954.748 2472.24 810.37C2380.26 665.992 2192.82 601.769 1964.29 614.499C1735.74 627.23 1465.98 716.924 1209.15 880.537C952.333 1044.15 757.037 1250.73 648.91 1452.49C540.791 1654.23 519.779 1851.25 611.758 1995.63C703.737 2140.01 891.182 2204.23 1119.71 2191.5C1348.26 2178.77 1618.02 2089.08 1874.85 1925.46Z" stroke="#A4DED6"/>
<path d="M1874.85 1925.46C2131.67 1761.85 2326.96 1555.27 2435.09 1353.51C2543.21 1151.77 2564.22 954.748 2472.24 810.37C2380.26 665.992 2192.82 601.769 1964.29 614.499C1735.74 627.23 1465.98 716.924 1209.15 880.537C952.333 1044.15 757.037 1250.73 648.91 1452.49C540.791 1654.23 519.779 1851.25 611.758 1995.63C703.737 2140.01 891.182 2204.23 1119.71 2191.5C1348.26 2178.77 1618.02 2089.08 1874.85 1925.46Z" stroke="#A4DED6"/>
<path d="M1728.28 1993.81C2018.7 1902.24 2260.81 1753.24 2417.47 1586.35C2574.12 1419.47 2645.41 1234.59 2593.93 1071.33C2542.45 908.064 2378.02 797.515 2153.98 750.663C1929.92 703.807 1646.14 720.625 1355.72 812.193C1065.3 903.761 823.194 1052.76 666.533 1219.65C509.884 1386.53 438.594 1571.41 490.072 1734.67C541.549 1897.94 705.984 2008.48 930.023 2055.34C1154.08 2102.19 1437.86 2085.38 1728.28 1993.81Z" stroke="#A4DED6"/>
</g>
<mask id="mask1_218_91" style="mask-type:alpha" maskUnits="userSpaceOnUse" x="-124" y="-275" width="1375" height="1112">
<ellipse cx="720" cy="512" rx="720" ry="512" transform="matrix(-0.904751 0.425941 0.425941 0.904751 996.841 -489)" fill="url(#paint1_radial_218_91)"/>
</mask>
<g mask="url(#mask1_218_91)">
<path d="M551.966 1761.31C276.46 1891.01 -2.50214 1945.75 -230.82 1929.38C-459.119 1913.01 -636.899 1825.52 -709.815 1670.64C-782.731 1515.76 -736.889 1322.99 -604.046 1136.6C-471.193 950.196 -251.263 770.065 24.2433 640.362C299.749 510.658 578.711 455.919 807.029 472.291C1035.33 488.662 1213.11 576.15 1286.02 731.032C1358.94 885.914 1313.1 1078.68 1180.26 1265.07C1047.4 1451.47 827.472 1631.61 551.966 1761.31Z" stroke="#A4DED6"/>
<path d="M688.037 1673.92C455.488 1870.51 200.199 1995.58 -24.5762 2038.86C-249.333 2082.14 -443.7 2043.64 -554.217 1912.91C-664.735 1782.18 -670.347 1584.12 -590.271 1369.7C-510.19 1155.26 -344.375 924.342 -111.827 727.752C120.722 531.162 376.011 406.087 600.786 362.808C825.544 319.533 1019.91 358.027 1130.43 488.759C1240.95 619.492 1246.56 817.554 1166.48 1031.98C1086.4 1246.41 920.585 1477.33 688.037 1673.92Z" stroke="#A4DED6"/>
<path d="M688.037 1673.92C455.488 1870.51 200.199 1995.58 -24.5762 2038.86C-249.333 2082.14 -443.7 2043.64 -554.217 1912.91C-664.735 1782.18 -670.347 1584.12 -590.271 1369.69C-510.19 1155.26 -344.375 924.342 -111.827 727.751C120.722 531.161 376.011 406.087 600.786 362.808C825.544 319.533 1019.91 358.027 1130.43 488.759C1240.95 619.492 1246.56 817.554 1166.48 1031.98C1086.4 1246.41 920.585 1477.33 688.037 1673.92Z" stroke="#A4DED6"/>
<path d="M796.853 1554.29C623.109 1804.37 408.89 1991.25 202.976 2091.23C-2.92266 2191.21 -200.629 2204.33 -341.217 2106.66C-481.805 2008.98 -538.488 1819.12 -516.637 1591.28C-494.785 1363.42 -394.386 1097.46 -220.642 847.381C-46.8988 597.302 167.32 410.415 373.235 310.435C579.133 210.463 776.84 197.34 917.428 295.013C1058.02 392.687 1114.7 582.548 1092.85 810.388C1071 1038.25 970.596 1304.21 796.853 1554.29Z" stroke="#A4DED6"/>
<path d="M870.998 1410.57C767.9 1697.1 609.35 1933.06 436.329 2082.93C263.321 2232.78 75.7477 2296.63 -85.3297 2238.67C-246.407 2180.71 -350.298 2011.99 -388.161 1786.26C-426.028 1560.51 -397.886 1277.62 -294.788 991.098C-191.69 704.572 -33.1402 468.61 139.881 318.742C312.889 168.886 500.462 105.039 661.54 162.998C822.617 220.957 926.508 389.678 964.371 615.41C1002.24 841.16 974.096 1124.05 870.998 1410.57Z" stroke="#A4DED6"/>
<path d="M905.42 1252.56C879.994 1556.01 787.918 1824.97 659.581 2014.51C531.254 2204.04 366.597 2314.25 196.007 2299.96C25.4171 2285.67 -118.602 2149.58 -213.599 1941.34C-308.604 1733.09 -354.637 1452.56 -329.21 1149.11C-303.784 845.662 -211.708 576.704 -83.3705 387.161C44.9565 197.634 209.614 87.4153 380.203 101.709C550.793 116.004 694.812 252.087 789.809 460.327C884.814 668.584 930.847 949.114 905.42 1252.56Z" stroke="#A4DED6"/>
<path d="M905.42 1252.56C879.994 1556.01 787.918 1824.97 659.581 2014.51C531.254 2204.04 366.597 2314.25 196.007 2299.96C25.4171 2285.67 -118.602 2149.58 -213.599 1941.34C-308.604 1733.09 -354.637 1452.56 -329.21 1149.11C-303.784 845.662 -211.708 576.704 -83.3705 387.161C44.9565 197.634 209.614 87.4153 380.203 101.709C550.793 116.004 694.812 252.087 789.809 460.327C884.814 668.584 930.847 949.114 905.42 1252.56Z" stroke="#A4DED6"/>
<path d="M897.773 1091.03C951.751 1390.71 932.424 1674.34 857.517 1890.64C782.616 2106.92 652.096 2256 483.619 2286.35C315.143 2316.69 140.81 2222.52 -4.84674 2045.96C-150.515 1869.39 -267.586 1610.33 -321.564 1310.64C-375.541 1010.96 -356.215 727.332 -281.308 511.032C-206.406 294.749 -75.8865 145.669 92.59 115.325C261.067 84.9797 435.399 179.151 581.056 355.709C726.724 532.281 843.795 791.338 897.773 1091.03Z" stroke="#A4DED6"/>
<path d="M-272.369 1464.7C-402.072 1189.19 -456.811 910.229 -440.439 681.911C-424.069 453.612 -336.581 275.832 -181.699 202.916C-26.8165 130 165.949 175.842 352.339 308.685C538.744 441.538 718.875 661.468 848.579 936.974C978.282 1212.48 1033.02 1491.44 1016.65 1719.76C1000.28 1948.06 912.79 2125.84 757.908 2198.76C603.026 2271.67 410.261 2225.83 223.87 2092.99C37.4653 1960.13 -142.665 1740.2 -272.369 1464.7Z" stroke="#A4DED6"/>
<path d="M-184.979 1600.77C-381.569 1368.22 -506.644 1112.93 -549.923 888.154C-593.198 663.397 -554.704 469.031 -423.971 358.513C-293.239 247.995 -95.1767 242.384 119.245 322.459C333.683 402.54 564.598 568.355 761.188 800.904C957.778 1033.45 1082.85 1288.74 1126.13 1513.52C1169.41 1738.27 1130.91 1932.64 1000.18 2043.16C869.448 2153.68 671.386 2159.29 456.965 2079.21C242.526 1999.13 11.611 1833.32 -184.979 1600.77Z" stroke="#A4DED6"/>
<path d="M-184.979 1600.77C-381.569 1368.22 -506.644 1112.93 -549.923 888.154C-593.198 663.397 -554.704 469.031 -423.971 358.513C-293.239 247.995 -95.1767 242.384 119.245 322.459C333.683 402.54 564.598 568.355 761.188 800.904C957.778 1033.45 1082.85 1288.74 1126.13 1513.52C1169.41 1738.27 1130.91 1932.64 1000.18 2043.16C869.448 2153.68 671.386 2159.29 456.965 2079.21C242.526 1999.13 11.611 1833.32 -184.979 1600.77Z" stroke="#A4DED6"/>
<path d="M-65.3491 1709.58C-315.428 1535.84 -502.315 1321.62 -602.295 1115.71C-702.267 909.808 -715.391 712.101 -617.717 571.513C-520.043 430.925 -330.182 374.243 -102.342 396.093C125.516 417.945 391.479 518.345 641.558 692.088C891.638 865.831 1078.52 1080.05 1178.5 1285.96C1278.48 1491.86 1291.6 1689.57 1193.93 1830.16C1096.25 1970.75 906.391 2027.43 678.551 2005.58C450.693 1983.73 184.73 1883.33 -65.3491 1709.58Z" stroke="#A4DED6"/>
<path d="M78.3686 1783.73C-208.158 1680.63 -444.12 1522.08 -593.988 1349.06C-743.844 1176.05 -807.691 988.478 -749.732 827.401C-691.773 666.323 -523.052 562.432 -297.32 524.569C-71.5699 486.702 211.316 514.844 497.842 617.942C784.368 721.04 1020.33 879.59 1170.2 1052.61C1320.05 1225.62 1383.9 1413.19 1325.94 1574.27C1267.98 1735.35 1099.26 1839.24 873.53 1877.1C647.78 1914.97 364.895 1886.83 78.3686 1783.73Z" stroke="#A4DED6"/>
<path d="M236.379 1818.15C-67.068 1792.72 -336.026 1700.65 -525.569 1572.31C-715.096 1443.98 -825.315 1279.33 -811.021 1108.74C-796.727 938.147 -660.643 794.128 -452.403 699.131C-244.146 604.126 36.3845 558.094 339.831 583.52C643.278 608.947 912.236 701.022 1101.78 829.36C1291.31 957.687 1401.52 1122.34 1387.23 1292.93C1372.94 1463.52 1236.85 1607.54 1028.61 1702.54C820.356 1797.54 539.826 1843.58 236.379 1818.15Z" stroke="#A4DED6"/>
<path d="M236.379 1818.15C-67.068 1792.72 -336.026 1700.65 -525.569 1572.31C-715.096 1443.98 -825.315 1279.33 -811.021 1108.74C-796.727 938.147 -660.643 794.128 -452.403 699.131C-244.146 604.126 36.3845 558.094 339.831 583.52C643.278 608.947 912.236 701.022 1101.78 829.36C1291.31 957.687 1401.52 1122.34 1387.23 1292.93C1372.94 1463.52 1236.85 1607.54 1028.61 1702.54C820.356 1797.54 539.826 1843.58 236.379 1818.15Z" stroke="#A4DED6"/>
<path d="M397.914 1810.5C98.2265 1864.48 -185.398 1845.15 -401.698 1770.25C-617.981 1695.35 -767.061 1564.83 -797.405 1396.35C-827.75 1227.87 -733.579 1053.54 -557.021 907.884C-380.449 762.215 -121.392 645.144 178.296 591.167C477.984 537.189 761.608 556.516 977.909 631.423C1194.19 706.324 1343.27 836.844 1373.62 1005.32C1403.96 1173.8 1309.79 1348.13 1133.23 1493.79C956.66 1639.45 697.602 1756.53 397.914 1810.5Z" stroke="#A4DED6"/>
<path d="M424.403 1805.13C127.355 1872.13 -156.843 1865.19 -376.205 1799.79C-595.549 1734.4 -750.18 1610.51 -787.844 1443.51C-825.509 1276.52 -739.032 1098.25 -568.995 945.027C-398.946 791.795 -145.241 663.535 151.807 596.537C448.855 529.538 733.053 536.475 952.414 601.876C1171.76 667.272 1326.39 791.165 1364.05 958.157C1401.72 1125.15 1315.24 1303.42 1145.21 1456.64C975.155 1609.88 721.451 1738.13 424.403 1805.13Z" stroke="#A4DED6"/>
<path d="M576.163 1749.27C306.577 1890.86 30.2678 1957.72 -198.546 1951.32C-427.343 1944.92 -608.77 1865.27 -688.372 1713.72C-767.975 1562.17 -730.585 1367.58 -605.998 1175.58C-481.402 983.554 -269.539 794.002 0.0475318 652.405C269.634 510.807 545.943 443.952 774.757 450.349C1003.55 456.746 1184.98 536.396 1264.58 687.95C1344.19 839.504 1306.8 1034.09 1182.21 1226.09C1057.61 1418.12 845.749 1607.67 576.163 1749.27Z" stroke="#A4DED6"/>
<path d="M576.163 1749.27C306.577 1890.86 30.2678 1957.72 -198.546 1951.32C-427.343 1944.92 -608.77 1865.27 -688.372 1713.72C-767.975 1562.17 -730.585 1367.58 -605.998 1175.58C-481.402 983.554 -269.539 794.002 0.0475318 652.404C269.634 510.807 545.943 443.952 774.757 450.349C1003.55 456.746 1184.98 536.396 1264.58 687.95C1344.19 839.504 1306.8 1034.09 1182.21 1226.09C1057.61 1418.12 845.749 1607.67 576.163 1749.27Z" stroke="#A4DED6"/>
<path d="M708.292 1656.02C484.54 1862.57 234.949 1998.66 12.2759 2051.7C-210.38 2104.74 -406.24 2074.76 -522.355 1948.97C-638.47 1823.19 -652.716 1625.56 -582.07 1407.85C-511.418 1190.12 -355.834 952.193 -132.081 745.646C91.6706 539.1 341.261 403.009 563.935 349.967C786.59 296.929 982.451 326.908 1098.57 452.695C1214.68 578.483 1228.93 776.111 1158.28 993.822C1087.63 1211.55 932.044 1449.48 708.292 1656.02Z" stroke="#A4DED6"/>
<path d="M811.786 1531.76C649.116 1789.18 443.253 1985.23 241.895 2094.1C40.5535 2202.96 -156.392 2224.69 -301.107 2133.25C-445.822 2041.8 -510.732 1854.59 -498.84 1626.01C-486.948 1397.42 -398.245 1127.33 -235.576 869.909C-72.906 612.489 132.957 416.436 334.315 307.569C535.656 198.711 732.602 176.976 877.317 268.425C1022.03 359.873 1086.94 547.081 1075.05 775.658C1063.16 1004.25 974.455 1274.34 811.786 1531.76Z" stroke="#A4DED6"/>
<path d="M879.591 1384.95C789.09 1675.7 640.983 1918.35 474.664 2075.62C308.357 2232.88 123.748 2304.85 -39.7047 2253.97C-203.157 2203.1 -314.308 2039.07 -361.982 1815.2C-409.66 1591.32 -393.884 1307.47 -303.382 1016.72C-212.88 725.973 -64.7739 483.319 101.546 326.047C267.852 168.787 452.462 96.8193 615.914 147.697C779.366 198.575 890.518 362.603 938.192 586.469C985.869 810.352 970.093 1094.2 879.591 1384.95Z" stroke="#A4DED6"/>
<path d="M879.591 1384.95C789.09 1675.7 640.983 1918.35 474.664 2075.62C308.357 2232.88 123.748 2304.85 -39.7047 2253.97C-203.157 2203.1 -314.308 2039.07 -361.982 1815.2C-409.66 1591.32 -393.884 1307.47 -303.382 1016.72C-212.88 725.973 -64.7739 483.319 101.546 326.047C267.852 168.787 452.462 96.8193 615.914 147.697C779.366 198.575 890.518 362.603 938.192 586.469C985.869 810.352 970.093 1094.2 879.591 1384.95Z" stroke="#A4DED6"/>
<path d="M907.089 1225.59C894.922 1529.85 814.666 1802.57 694.719 1997.53C574.781 2192.48 415.088 2309.77 244.037 2302.93C72.9865 2296.09 -76.8312 2166.42 -180.821 1962.52C-284.82 1758.61 -343.045 1480.35 -330.879 1176.08C-318.713 871.818 -238.457 599.1 -118.509 404.139C1.4286 209.195 161.121 91.8988 332.172 98.7383C503.223 105.578 653.041 235.249 757.031 439.148C861.029 643.063 919.255 921.318 907.089 1225.59Z" stroke="#A4DED6"/>
<path d="M-316.193 1337.13C-383.192 1040.09 -376.255 755.888 -310.854 536.526C-245.458 317.181 -121.566 162.551 45.4271 124.886C212.42 87.2213 390.694 173.699 543.913 343.735C697.145 513.785 825.405 767.489 892.403 1064.54C959.402 1361.59 952.465 1645.78 887.064 1865.14C821.668 2084.49 697.775 2239.12 530.783 2276.78C363.79 2314.45 185.516 2227.97 32.2962 2057.94C-120.936 1887.89 -249.195 1634.18 -316.193 1337.13Z" stroke="#A4DED6"/>
<path d="M-260.326 1488.89C-401.923 1219.31 -468.779 942.998 -462.381 714.183C-455.984 485.387 -376.334 303.96 -224.78 224.358C-73.2262 144.755 121.356 182.145 313.363 306.732C505.386 431.328 694.938 643.191 836.535 912.777C978.133 1182.36 1044.99 1458.67 1038.59 1687.49C1032.19 1916.28 952.544 2097.71 800.99 2177.31C649.435 2256.91 454.854 2219.52 262.846 2094.94C70.8237 1970.34 -118.729 1758.48 -260.326 1488.89Z" stroke="#A4DED6"/>
<path d="M-260.326 1488.89C-401.923 1219.31 -468.779 942.998 -462.381 714.183C-455.984 485.387 -376.334 303.96 -224.78 224.358C-73.2262 144.755 121.356 182.145 313.363 306.732C505.386 431.328 694.938 643.191 836.535 912.777C978.133 1182.36 1044.99 1458.67 1038.59 1687.49C1032.19 1916.28 952.544 2097.71 800.99 2177.31C649.435 2256.91 454.854 2219.52 262.846 2094.94C70.8237 1970.34 -118.729 1758.48 -260.326 1488.89Z" stroke="#A4DED6"/>
<path d="M-167.084 1621.02C-373.631 1397.27 -509.722 1147.68 -562.764 925.006C-615.802 702.35 -585.823 506.49 -460.035 390.375C-334.248 274.26 -136.619 260.015 81.0908 330.661C298.818 401.312 536.746 556.897 743.293 780.649C949.839 1004.4 1085.93 1253.99 1138.97 1476.66C1192.01 1699.32 1162.03 1895.18 1036.24 2011.3C910.457 2127.41 712.828 2141.66 495.118 2071.01C277.39 2000.36 39.4622 1844.77 -167.084 1621.02Z" stroke="#A4DED6"/>
<path d="M-42.821 1724.52C-300.241 1561.85 -496.294 1355.98 -605.161 1154.63C-714.019 953.284 -735.753 756.338 -644.305 611.623C-552.856 466.909 -365.649 401.998 -137.072 413.89C91.5224 425.782 361.611 514.485 619.031 677.154C876.451 839.824 1072.5 1045.69 1181.37 1247.04C1290.23 1448.39 1311.96 1645.33 1220.52 1790.05C1129.07 1934.76 941.859 1999.67 713.283 1987.78C484.688 1975.89 214.599 1887.19 -42.821 1724.52Z" stroke="#A4DED6"/>
<path d="M103.994 1792.32C-186.757 1701.82 -429.411 1553.71 -586.683 1387.39C-743.943 1221.09 -815.911 1036.48 -765.033 873.026C-714.155 709.573 -550.127 598.422 -326.261 550.748C-102.378 503.071 181.466 518.847 472.217 609.348C762.967 699.85 1005.62 847.956 1162.89 1014.28C1320.15 1180.58 1392.12 1365.19 1341.24 1528.64C1290.37 1692.1 1126.34 1803.25 902.472 1850.92C678.588 1898.6 394.744 1882.82 103.994 1792.32Z" stroke="#A4DED6"/>
<path d="M103.994 1792.32C-186.757 1701.82 -429.411 1553.71 -586.683 1387.39C-743.943 1221.09 -815.911 1036.48 -765.033 873.026C-714.155 709.573 -550.127 598.422 -326.261 550.748C-102.378 503.071 181.466 518.847 472.217 609.348C762.967 699.85 1005.62 847.956 1162.89 1014.28C1320.15 1180.58 1392.12 1365.19 1341.24 1528.64C1290.37 1692.1 1126.34 1803.25 902.472 1850.92C678.588 1898.6 394.744 1882.82 103.994 1792.32Z" stroke="#A4DED6"/>
<path d="M263.355 1819.82C-40.9117 1807.65 -313.63 1727.4 -508.59 1607.45C-703.535 1487.51 -820.831 1327.82 -813.991 1156.77C-807.152 985.717 -677.48 835.899 -473.582 731.909C-269.667 627.911 8.58856 569.685 312.856 581.851C617.123 594.017 889.841 674.274 1084.8 794.221C1279.75 914.159 1397.04 1073.85 1390.2 1244.9C1383.36 1415.95 1253.69 1565.77 1049.79 1669.76C845.878 1773.76 567.622 1831.98 263.355 1819.82Z" stroke="#A4DED6"/>
<path d="M450.632 1798.61C156.789 1878.5 -127.441 1883.97 -349.446 1828.2C-571.435 1772.44 -731.322 1655.41 -776.235 1490.21C-821.148 1325.02 -742.529 1143.15 -579.338 982.656C-416.134 822.153 -168.266 682.949 125.577 603.057C419.42 523.166 703.65 517.699 925.656 573.47C1147.64 629.235 1307.53 746.265 1352.44 911.456C1397.36 1076.65 1318.74 1258.52 1155.55 1419.01C992.343 1579.52 744.475 1718.72 450.632 1798.61Z" stroke="#A4DED6"/>
<path d="M599.811 1736.18C336.658 1889.4 63.5279 1968.24 -165.348 1971.83C-394.205 1975.42 -578.934 1903.76 -665.071 1755.83C-751.209 1607.89 -722.342 1411.86 -606.249 1214.6C-490.147 1017.33 -286.754 818.713 -23.6007 665.491C239.552 512.269 512.682 433.426 741.558 429.836C970.415 426.247 1155.14 497.907 1241.28 645.845C1327.42 793.783 1298.55 989.81 1182.46 1187.07C1066.36 1384.34 862.964 1582.96 599.811 1736.18Z" stroke="#A4DED6"/>
<path d="M599.811 1736.18C336.658 1889.4 63.5279 1968.24 -165.348 1971.83C-394.205 1975.42 -578.934 1903.76 -665.071 1755.83C-751.209 1607.89 -722.342 1411.86 -606.249 1214.6C-490.147 1017.33 -286.754 818.713 -23.6007 665.491C239.552 512.269 512.682 433.426 741.558 429.836C970.415 426.247 1155.14 497.907 1241.28 645.845C1327.42 793.783 1298.55 989.81 1182.46 1187.07C1066.36 1384.34 862.964 1582.96 599.811 1736.18Z" stroke="#A4DED6"/>
<path d="M727.747 1637.26C513.217 1853.37 269.801 2000.22 49.6527 2062.93C-170.478 2125.62 -367.459 2104.22 -488.95 1983.61C-610.442 1863.01 -633.294 1666.19 -572.212 1445.61C-511.124 1225.01 -366.066 980.518 -151.537 764.408C62.9931 548.298 306.41 401.449 526.558 338.745C746.688 276.045 943.67 297.453 1065.16 418.056C1186.65 538.658 1209.5 735.478 1148.42 956.062C1087.33 1176.66 942.277 1421.15 727.747 1637.26Z" stroke="#A4DED6"/>
<path d="M825.722 1508.6C674.435 1772.87 477.32 1977.72 280.903 2095.27C84.5011 2212.8 -111.309 2243.11 -259.875 2158.06C-408.441 2073.01 -481.455 1888.81 -479.546 1659.93C-477.636 1431.04 -400.799 1157.34 -249.512 893.067C-98.2257 628.796 98.8897 423.95 295.307 306.404C491.709 188.867 687.519 158.562 836.085 243.611C984.651 328.66 1057.66 512.859 1055.76 741.736C1053.85 970.632 977.008 1244.33 825.722 1508.6Z" stroke="#A4DED6"/>
<path d="M887.06 1358.97C809.326 1653.39 671.946 1902.28 512.644 2066.65C353.356 2231.02 172.061 2310.97 6.54492 2267.27C-158.971 2223.57 -277.171 2064.55 -334.565 1842.97C-391.963 1621.38 -388.583 1337.12 -310.849 1042.7C-233.116 748.277 -95.7353 499.394 63.566 335.017C222.855 170.652 404.149 90.7007 569.665 134.4C735.181 178.1 853.382 337.124 910.775 558.697C968.173 780.288 964.793 1064.55 887.06 1358.97Z" stroke="#A4DED6"/>
<path d="M887.06 1358.97C809.326 1653.39 671.946 1902.28 512.644 2066.65C353.356 2231.02 172.061 2310.97 6.54492 2267.27C-158.971 2223.57 -277.171 2064.55 -334.565 1842.97C-391.963 1621.38 -388.583 1337.12 -310.849 1042.7C-233.116 748.277 -95.7353 499.394 63.566 335.017C222.855 170.652 404.149 90.7007 569.665 134.4C735.181 178.1 853.382 337.124 910.775 558.697C968.173 780.288 964.793 1064.55 887.06 1358.97Z" stroke="#A4DED6"/>
<path d="M907.579 1198.56C908.696 1503.07 840.412 1779.03 729.083 1979.04C617.763 2179.03 463.338 2303.18 292.152 2303.8C120.966 2304.43 -34.3657 2181.42 -147.151 1982.25C-259.945 1783.07 -330.252 1507.62 -331.37 1203.11C-332.487 898.6 -264.203 622.641 -152.874 422.634C-41.5533 222.643 112.871 98.4933 284.057 97.8651C455.244 97.237 610.575 220.25 723.36 419.419C836.154 618.603 906.462 894.054 907.579 1198.56Z" stroke="#A4DED6"/>
<path d="M-309.673 1363.36C-389.565 1069.52 -395.031 785.29 -339.261 563.284C-283.495 341.296 -166.465 181.409 -1.27432 136.496C163.916 91.5825 345.793 170.201 506.284 333.392C666.787 496.597 805.991 744.465 885.883 1038.31C965.774 1332.15 971.241 1616.38 915.47 1838.39C859.705 2060.37 742.675 2220.26 577.484 2265.17C412.293 2310.09 230.416 2231.47 69.9258 2068.28C-90.5776 1905.07 -229.781 1657.21 -309.673 1363.36Z" stroke="#A4DED6"/>
<path d="M-247.239 1512.54C-400.461 1249.39 -479.305 976.258 -482.894 747.382C-486.483 518.525 -414.823 333.796 -266.885 247.659C-118.948 161.522 77.0798 190.388 274.339 306.481C471.614 422.583 670.227 625.976 823.449 889.129C976.67 1152.28 1055.51 1425.41 1059.1 1654.29C1062.69 1883.15 991.033 2067.87 843.095 2154.01C695.157 2240.15 499.13 2211.28 301.871 2095.19C104.596 1979.09 -94.0173 1775.69 -247.239 1512.54Z" stroke="#A4DED6"/>
<path d="M-247.239 1512.54C-400.461 1249.39 -479.305 976.258 -482.894 747.382C-486.483 518.525 -414.823 333.796 -266.885 247.659C-118.948 161.522 77.0798 190.388 274.339 306.481C471.614 422.583 670.227 625.976 823.449 889.129C976.67 1152.28 1055.51 1425.41 1059.1 1654.29C1062.69 1883.15 991.033 2067.87 843.095 2154.01C695.157 2240.15 499.13 2211.28 301.871 2095.19C104.596 1979.09 -94.0173 1775.69 -247.239 1512.54Z" stroke="#A4DED6"/>
<path d="M-148.323 1640.48C-364.433 1425.95 -511.281 1182.53 -573.986 962.383C-636.686 742.253 -615.278 545.271 -494.675 423.78C-374.072 302.289 -177.253 279.436 43.3312 340.519C263.933 401.606 508.421 546.664 724.531 761.194C940.641 975.724 1087.49 1219.14 1150.19 1439.29C1212.89 1659.42 1191.49 1856.4 1070.88 1977.89C950.281 2099.38 753.461 2122.23 532.877 2061.15C312.275 2000.07 67.7869 1855.01 -148.323 1640.48Z" stroke="#A4DED6"/>
<path d="M-19.6633 1738.45C-283.934 1587.17 -488.779 1390.05 -606.326 1193.63C-723.863 997.231 -754.168 801.421 -669.118 652.855C-584.069 504.289 -399.871 431.275 -170.994 433.185C57.9022 435.094 331.603 511.932 595.874 663.218C860.144 814.504 1064.99 1011.62 1182.54 1208.04C1300.07 1404.44 1330.38 1600.25 1245.33 1748.81C1160.28 1897.38 976.082 1970.4 747.204 1968.49C518.308 1966.58 244.607 1889.74 -19.6633 1738.45Z" stroke="#A4DED6"/>
<path d="M129.969 1799.79C-164.452 1722.06 -413.335 1584.68 -577.713 1425.37C-742.078 1266.09 -822.029 1084.79 -778.329 919.275C-734.63 753.759 -575.606 635.559 -354.033 578.165C-132.442 520.767 151.82 524.147 446.241 601.881C740.663 679.614 989.546 816.995 1153.92 976.296C1318.29 1135.58 1398.24 1316.88 1354.54 1482.4C1310.84 1647.91 1151.82 1766.11 930.243 1823.5C708.653 1880.9 424.391 1877.52 129.969 1799.79Z" stroke="#A4DED6"/>
<path d="M129.969 1799.79C-164.452 1722.06 -413.335 1584.68 -577.713 1425.37C-742.078 1266.09 -822.029 1084.79 -778.329 919.275C-734.63 753.759 -575.606 635.559 -354.033 578.165C-132.442 520.767 151.82 524.147 446.241 601.881C740.663 679.614 989.546 816.995 1153.92 976.296C1318.29 1135.58 1398.24 1316.88 1354.54 1482.4C1310.84 1647.91 1151.82 1766.11 930.243 1823.5C708.653 1880.9 424.391 1877.52 129.969 1799.79Z" stroke="#A4DED6"/>
<path d="M290.379 1820.31C-14.1293 1821.43 -290.089 1753.14 -490.095 1641.81C-690.086 1530.49 -814.236 1376.07 -814.864 1204.88C-815.493 1033.7 -692.479 878.365 -493.311 765.58C-294.126 652.786 -18.6756 582.478 285.833 581.361C590.341 580.243 866.3 648.527 1066.31 759.856C1266.3 871.177 1390.45 1025.6 1391.08 1196.79C1391.7 1367.97 1268.69 1523.31 1069.52 1636.09C870.338 1748.88 594.887 1819.19 290.379 1820.31Z" stroke="#A4DED6"/>
<path d="M476.552 1790.96C186.474 1883.59 -97.2469 1901.45 -321.474 1855.41C-545.684 1809.38 -710.524 1699.44 -762.599 1536.37C-814.675 1373.29 -744.065 1188.16 -588.029 1020.7C-431.981 853.232 -190.421 703.349 99.6573 610.716C389.736 518.083 673.456 500.224 897.684 546.257C1121.89 592.287 1286.73 702.231 1338.81 865.306C1390.88 1028.38 1320.27 1213.51 1164.24 1380.97C1008.19 1548.44 766.631 1698.32 476.552 1790.96Z" stroke="#A4DED6"/>
<path d="M622.865 1722.07C366.646 1886.63 97.2154 1977.31 -131.286 1990.88C-359.769 2004.45 -547.448 1940.91 -639.956 1796.87C-732.464 1652.83 -712.175 1455.73 -604.798 1253.6C-497.411 1051.45 -302.875 844.152 -46.6555 679.597C209.564 515.043 478.994 424.36 707.496 410.791C935.979 397.222 1123.66 460.757 1216.17 604.796C1308.67 748.836 1288.39 945.936 1181.01 1148.07C1073.62 1350.22 879.085 1557.52 622.865 1722.07Z" stroke="#A4DED6"/>
<path d="M622.865 1722.07C366.646 1886.63 97.2154 1977.31 -131.286 1990.88C-359.769 2004.45 -547.448 1940.91 -639.956 1796.87C-732.464 1652.83 -712.175 1455.73 -604.798 1253.6C-497.411 1051.45 -302.875 844.152 -46.6555 679.597C209.564 515.043 478.994 424.36 707.496 410.791C935.979 397.222 1123.66 460.757 1216.17 604.796C1308.67 748.836 1288.39 945.936 1181.01 1148.07C1073.62 1350.22 879.085 1557.52 622.865 1722.07Z" stroke="#A4DED6"/>
<path d="M746.365 1617.67C541.467 1842.93 304.687 2000.26 87.4837 2072.51C-129.702 2144.75 -327.43 2131.95 -454.066 2016.76C-580.703 1901.58 -612.118 1705.94 -560.716 1482.9C-509.309 1259.84 -375.054 1009.26 -170.155 784C34.7442 558.738 271.524 401.412 488.727 329.164C705.913 256.922 903.641 269.717 1030.28 384.906C1156.91 500.095 1188.33 695.73 1136.93 918.769C1085.52 1141.83 951.264 1392.41 746.365 1617.67Z" stroke="#A4DED6"/>
<path d="M838.635 1484.86C699.02 1755.48 511.027 1968.73 319.924 2094.73C128.836 2220.72 -65.4657 2259.54 -217.6 2181.05C-369.734 2102.56 -450.714 1921.72 -458.789 1692.98C-466.866 1464.22 -402.04 1187.43 -262.425 916.81C-122.81 646.192 65.1826 432.943 256.286 306.941C447.374 180.949 641.676 142.132 793.81 220.62C945.944 299.108 1026.92 479.946 1035 708.689C1043.08 937.45 978.25 1214.24 838.635 1484.86Z" stroke="#A4DED6"/>
<path d="M893.387 1332.69C828.571 1630.23 702.176 1884.87 550.197 2056.04C398.229 2227.19 220.594 2314.97 53.33 2278.54C-113.935 2242.1 -238.959 2088.38 -305.963 1869.52C-372.972 1650.65 -381.994 1366.51 -317.177 1068.98C-252.361 771.444 -125.967 516.805 26.013 345.635C177.981 174.479 355.615 86.6957 522.88 123.134C690.144 159.572 815.169 313.289 882.172 532.148C949.181 751.024 958.204 1035.16 893.387 1332.69Z" stroke="#A4DED6"/>
<path d="M893.387 1332.69C828.571 1630.23 702.176 1884.87 550.197 2056.04C398.229 2227.19 220.594 2314.97 53.33 2278.54C-113.935 2242.1 -238.959 2088.38 -305.963 1869.52C-372.972 1650.65 -381.994 1366.51 -317.177 1068.98C-252.361 771.444 -125.967 516.805 26.013 345.635C177.981 174.479 355.615 86.6957 522.88 123.134C690.144 159.572 815.169 313.289 882.172 532.148C949.181 751.024 958.204 1035.16 893.387 1332.69Z" stroke="#A4DED6"/>
<path d="M906.89 1171.54C921.289 1475.71 865.107 1754.39 762.608 1959.06C660.117 2163.72 511.255 2294.48 340.259 2302.58C169.263 2310.67 8.71388 2194.55 -112.651 2000.49C-234.026 1806.42 -316.282 1534.3 -330.681 1230.13C-345.08 925.958 -288.898 647.282 -186.399 442.61C-83.9076 237.954 64.9544 107.186 235.95 99.0915C406.946 90.9968 567.496 207.117 688.861 401.177C810.236 595.252 892.492 867.373 906.89 1171.54Z" stroke="#A4DED6"/>
<path d="M-302.015 1389.28C-394.648 1099.2 -412.507 815.484 -366.473 591.256C-320.444 367.047 -210.499 202.207 -47.4247 150.131C115.65 98.0554 300.783 168.666 468.239 324.701C635.708 480.749 785.591 722.309 878.224 1012.39C970.857 1302.47 988.716 1586.19 942.683 1810.41C896.653 2034.62 786.709 2199.46 623.634 2251.54C460.56 2303.62 275.427 2233 107.971 2076.97C-59.4986 1920.92 -209.382 1679.36 -302.015 1389.28Z" stroke="#A4DED6"/>
<path d="M-233.134 1535.6C-397.688 1279.38 -488.371 1009.95 -501.94 781.445C-515.509 552.962 -451.974 365.283 -307.935 272.775C-163.895 180.267 33.2051 200.555 235.34 307.933C437.491 415.319 644.788 609.856 809.342 866.075C973.897 1122.29 1064.58 1391.73 1078.15 1620.23C1091.72 1848.71 1028.18 2036.39 884.143 2128.9C740.104 2221.4 543.004 2201.12 340.868 2093.74C138.717 1986.35 -68.5791 1791.82 -233.134 1535.6Z" stroke="#A4DED6"/>
<path d="M-233.134 1535.6C-397.688 1279.38 -488.371 1009.95 -501.94 781.445C-515.509 552.962 -451.974 365.283 -307.935 272.775C-163.895 180.267 33.2051 200.555 235.34 307.933C437.491 415.319 644.788 609.856 809.342 866.075C973.897 1122.29 1064.58 1391.73 1078.15 1620.23C1091.72 1848.71 1028.18 2036.39 884.143 2128.9C740.104 2221.4 543.004 2201.12 340.868 2093.74C138.717 1986.35 -68.5791 1791.82 -233.134 1535.6Z" stroke="#A4DED6"/>
<path d="M-128.73 1659.1C-353.992 1454.2 -511.318 1217.42 -583.566 1000.21C-655.808 783.028 -643.013 585.3 -527.824 458.664C-412.635 332.028 -217 300.612 6.03853 352.014C229.095 403.421 479.678 537.677 704.94 742.576C930.202 947.474 1087.53 1184.25 1159.78 1401.46C1232.02 1618.64 1219.22 1816.37 1104.03 1943.01C988.845 2069.64 793.21 2101.06 570.171 2049.66C347.115 1998.25 96.532 1863.99 -128.73 1659.1Z" stroke="#A4DED6"/>
<path d="M4.07969 1751.37C-266.538 1611.75 -479.787 1423.76 -605.789 1232.65C-731.781 1041.57 -770.598 847.265 -692.11 695.131C-613.623 542.996 -432.785 462.017 -204.042 453.941C24.7197 445.865 301.512 510.69 572.13 650.305C842.748 789.92 1056 977.913 1182 1169.02C1307.99 1360.1 1346.81 1554.41 1268.32 1706.54C1189.83 1858.67 1008.99 1939.65 780.251 1947.73C551.49 1955.81 274.698 1890.98 4.07969 1751.37Z" stroke="#A4DED6"/>
<path d="M156.245 1806.12C-141.287 1741.3 -395.925 1614.91 -567.095 1462.93C-738.251 1310.96 -826.035 1133.32 -789.596 966.06C-753.158 798.796 -599.441 673.771 -380.582 606.768C-161.706 539.759 122.432 530.736 419.964 595.553C717.496 660.37 972.135 786.764 1143.3 938.743C1314.46 1090.71 1402.24 1268.35 1365.81 1435.61C1329.37 1602.87 1175.65 1727.9 956.792 1794.9C737.916 1861.91 453.777 1870.93 156.245 1806.12Z" stroke="#A4DED6"/>
<path d="M156.245 1806.12C-141.287 1741.3 -395.925 1614.91 -567.095 1462.93C-738.251 1310.96 -826.035 1133.32 -789.596 966.06C-753.158 798.796 -599.441 673.771 -380.582 606.768C-161.706 539.759 122.432 530.736 419.964 595.553C717.496 660.37 972.135 786.764 1143.3 938.743C1314.46 1090.71 1402.24 1268.35 1365.81 1435.61C1329.37 1602.87 1175.65 1727.9 956.792 1794.9C737.916 1861.91 453.777 1870.93 156.245 1806.12Z" stroke="#A4DED6"/>
<path d="M317.397 1819.62C13.2276 1834.02 -265.448 1777.84 -470.12 1675.34C-674.777 1572.85 -805.544 1423.99 -813.639 1252.99C-821.733 1081.99 -705.613 921.444 -511.553 800.079C-317.478 678.704 -45.3566 596.448 258.813 582.05C562.983 567.651 841.658 623.833 1046.33 726.332C1250.99 828.823 1381.75 977.685 1389.85 1148.68C1397.94 1319.68 1281.82 1480.23 1087.76 1601.59C893.689 1722.97 621.567 1805.22 317.397 1819.62Z" stroke="#A4DED6"/>
<path d="M502.114 1782.17C216.352 1887.37 -66.3199 1917.59 -292.342 1881.38C-518.345 1845.17 -687.824 1742.52 -746.964 1581.88C-806.103 1421.23 -743.635 1233.19 -595.053 1059.09C-446.458 884.972 -211.666 724.695 74.096 619.497C359.858 514.299 642.529 484.082 868.551 520.291C1094.56 556.497 1264.03 659.146 1323.17 819.794C1382.31 980.442 1319.84 1168.48 1171.26 1342.58C1022.67 1516.7 787.875 1676.98 502.114 1782.17Z" stroke="#A4DED6"/>
<path d="M645.283 1706.98C396.485 1882.55 131.266 1984.9 -96.4253 2008.42C-324.099 2031.94 -514.371 1976.66 -613.074 1836.79C-711.777 1696.92 -700.105 1499.12 -601.646 1292.5C-503.18 1085.85 -317.871 870.27 -69.0729 694.696C179.725 519.122 444.943 416.773 672.635 393.249C900.309 369.727 1090.58 425.015 1189.28 564.882C1287.99 704.75 1276.31 902.547 1177.86 1109.17C1079.39 1315.82 894.08 1531.4 645.283 1706.98Z" stroke="#A4DED6"/>
<path d="M645.283 1706.97C396.485 1882.55 131.266 1984.9 -96.4253 2008.42C-324.099 2031.94 -514.371 1976.66 -613.074 1836.79C-711.777 1696.92 -700.105 1499.12 -601.646 1292.5C-503.18 1085.85 -317.871 870.269 -69.0729 694.695C179.725 519.121 444.943 416.773 672.635 393.249C900.309 369.727 1090.58 425.015 1189.28 564.882C1287.99 704.749 1276.31 902.547 1177.86 1109.17C1079.39 1315.82 894.08 1531.4 645.283 1706.97Z" stroke="#A4DED6"/>
<path d="M764.111 1597.28C569.233 1831.27 339.541 1998.77 125.696 2080.43C-88.1318 2162.07 -286.23 2157.92 -417.77 2048.36C-549.31 1938.81 -589.229 1744.73 -547.605 1519.66C-505.977 1294.57 -382.779 1038.37 -187.901 804.386C6.97735 570.401 236.669 402.896 450.514 321.243C664.342 239.596 862.44 243.754 993.98 353.309C1125.52 462.865 1165.44 656.943 1123.82 882.012C1082.19 1107.1 958.989 1363.3 764.111 1597.28Z" stroke="#A4DED6"/>
<path d="M850.5 1460.58C722.822 1737.03 544.31 1958.27 358.885 2092.49C173.475 2226.7 -18.9491 2273.95 -174.362 2202.18C-329.775 2130.4 -418.566 1953.27 -436.611 1725.09C-454.658 1496.9 -401.968 1217.54 -274.29 941.094C-146.612 664.644 31.8998 443.398 217.325 309.18C402.735 174.973 595.159 127.717 750.572 199.494C905.985 271.272 994.776 448.405 1012.82 676.578C1030.87 904.769 978.178 1184.13 850.5 1460.58Z" stroke="#A4DED6"/>
<path d="M898.563 1306.17C846.786 1606.24 731.62 1866.15 587.251 2043.79C442.894 2221.41 269.257 2316.86 100.562 2287.75C-68.1325 2258.64 -199.743 2110.53 -276.229 1894.8C-352.722 1679.05 -374.13 1395.58 -322.353 1095.5C-270.576 795.427 -155.409 535.518 -11.0406 357.881C133.317 180.259 306.953 84.8112 475.648 113.919C644.343 143.026 775.953 291.144 852.44 506.871C928.932 722.616 950.34 1006.09 898.563 1306.17Z" stroke="#A4DED6"/>
<path d="M898.563 1306.17C846.786 1606.24 731.62 1866.15 587.251 2043.79C442.894 2221.41 269.257 2316.86 100.562 2287.75C-68.1325 2258.64 -199.743 2110.53 -276.229 1894.8C-352.722 1679.05 -374.13 1395.58 -322.353 1095.5C-270.576 795.427 -155.409 535.518 -11.0406 357.881C133.317 180.259 306.953 84.8112 475.648 113.919C644.343 143.026 775.953 291.144 852.44 506.871C928.932 722.616 950.34 1006.09 898.563 1306.17Z" stroke="#A4DED6"/>
<path d="M905.024 1144.58C932.677 1447.83 888.704 1728.69 795.23 1937.64C701.764 2146.57 558.747 2283.71 388.267 2299.26C217.787 2314.8 52.3253 2205.79 -77.3892 2017.21C-207.114 1828.62 -301.161 1560.34 -328.814 1257.09C-356.467 953.838 -312.494 672.978 -219.02 464.029C-125.554 255.097 17.4627 117.961 187.943 102.415C358.423 86.8692 523.885 195.876 653.599 384.457C783.324 573.053 877.371 841.328 905.024 1144.58Z" stroke="#A4DED6"/>
<path d="M-293.233 1414.84C-398.431 1129.08 -428.649 846.411 -392.44 620.389C-356.234 394.385 -253.584 224.906 -92.9366 165.767C67.7111 106.627 255.748 169.096 429.851 317.678C603.967 466.272 764.245 701.065 869.443 986.827C974.64 1272.59 1004.86 1555.26 968.649 1781.28C932.443 2007.29 829.794 2176.76 669.146 2235.9C508.498 2295.04 320.461 2232.58 146.358 2083.99C-27.7583 1935.4 -188.035 1700.61 -293.233 1414.84Z" stroke="#A4DED6"/>
<path d="M-218.035 1558.01C-393.609 1309.22 -495.958 1044 -519.481 816.305C-543.003 588.631 -487.716 398.36 -347.848 299.657C-207.981 200.954 -10.1835 212.626 196.443 311.084C403.086 409.551 618.671 594.86 794.245 843.657C969.819 1092.45 1072.17 1357.67 1095.69 1585.37C1119.21 1813.04 1063.93 2003.31 924.058 2102.01C784.19 2200.72 586.393 2189.04 379.766 2090.59C173.124 1992.12 -42.461 1806.81 -218.035 1558.01Z" stroke="#A4DED6"/>
<path d="M-218.035 1558.01C-393.609 1309.22 -495.958 1044 -519.481 816.305C-543.003 588.631 -487.716 398.36 -347.848 299.657C-207.981 200.954 -10.1835 212.626 196.443 311.084C403.086 409.551 618.671 594.86 794.245 843.657C969.819 1092.45 1072.17 1357.67 1095.69 1585.37C1119.21 1813.04 1063.93 2003.31 924.058 2102.01C784.19 2200.72 586.393 2189.04 379.766 2090.59C173.124 1992.12 -42.461 1806.81 -218.035 1558.01Z" stroke="#A4DED6"/>
<path d="M-108.345 1676.84C-342.33 1481.96 -509.834 1252.27 -591.488 1038.43C-673.134 824.598 -668.976 626.501 -559.421 494.96C-449.866 363.42 -255.787 323.501 -30.7185 365.126C194.368 406.754 450.569 529.951 684.554 724.83C918.539 919.708 1086.04 1149.4 1167.7 1363.24C1249.34 1577.07 1245.19 1775.17 1135.63 1906.71C1026.07 2038.25 831.996 2078.17 606.927 2036.55C381.841 1994.92 125.64 1871.72 -108.345 1676.84Z" stroke="#A4DED6"/>
<path d="M28.3639 1763.23C-248.086 1635.55 -469.332 1457.04 -603.55 1271.62C-737.758 1086.21 -785.013 893.781 -713.236 738.368C-641.459 582.955 -464.325 494.165 -236.152 476.119C-7.96094 458.072 271.395 510.762 547.846 638.44C824.296 766.118 1045.54 944.63 1179.76 1130.06C1313.97 1315.47 1361.22 1507.89 1289.45 1663.3C1217.67 1818.72 1040.53 1907.51 812.362 1925.55C584.171 1943.6 304.814 1890.91 28.3639 1763.23Z" stroke="#A4DED6"/>
<path d="M182.773 1811.29C-117.303 1759.52 -377.213 1644.35 -554.849 1499.98C-732.471 1355.62 -827.919 1181.99 -798.812 1013.29C-769.704 844.597 -621.587 712.987 -405.859 636.501C-190.114 560.008 93.3607 538.6 393.437 590.377C693.513 642.154 953.422 757.321 1131.06 901.689C1308.68 1046.05 1404.13 1219.68 1375.02 1388.38C1345.91 1557.07 1197.8 1688.68 982.069 1765.17C766.324 1841.66 482.849 1863.07 182.773 1811.29Z" stroke="#A4DED6"/>
<path d="M182.773 1811.29C-117.303 1759.52 -377.213 1644.35 -554.849 1499.98C-732.471 1355.62 -827.919 1181.99 -798.812 1013.29C-769.704 844.597 -621.587 712.987 -405.859 636.501C-190.114 560.008 93.3607 538.6 393.437 590.377C693.513 642.154 953.422 757.321 1131.06 901.689C1308.68 1046.05 1404.13 1219.68 1375.02 1388.38C1345.91 1557.07 1197.8 1688.68 982.069 1765.17C766.324 1841.66 482.849 1863.07 182.773 1811.29Z" stroke="#A4DED6"/>
<path d="M344.36 1817.75C41.1083 1845.41 -239.752 1801.43 -448.701 1707.96C-657.633 1614.49 -794.769 1471.48 -810.315 1301C-825.861 1130.52 -716.854 965.055 -528.273 835.341C-339.677 705.616 -71.4021 611.569 231.85 583.916C535.102 556.263 815.963 600.236 1024.91 693.71C1233.84 787.176 1370.98 930.193 1386.53 1100.67C1402.07 1271.15 1293.06 1436.61 1104.48 1566.33C915.887 1696.05 647.612 1790.1 344.36 1817.75Z" stroke="#A4DED6"/>
<path d="M527.267 1772.29C246.366 1889.85 -34.7183 1932.37 -262.104 1906.05C-489.472 1879.74 -663.267 1784.58 -729.358 1626.66C-795.449 1468.75 -741.242 1278.17 -600.395 1097.75C-459.537 917.314 -231.959 746.948 48.942 629.386C329.843 511.823 610.928 469.304 838.314 495.62C1065.68 521.933 1239.48 617.093 1305.57 775.008C1371.66 932.923 1317.45 1123.51 1176.6 1303.92C1035.75 1484.36 808.169 1654.72 527.267 1772.29Z" stroke="#A4DED6"/>
<path d="M667.02 1690.91C426.118 1877.17 165.616 1990.99 -60.8329 2024.43C-287.264 2057.86 -479.766 2010.92 -584.476 1875.49C-689.186 1740.06 -686.153 1541.94 -596.801 1331.22C-507.442 1120.48 -331.713 897.017 -90.8105 710.757C150.092 524.498 410.594 410.678 637.043 377.245C863.474 343.814 1055.98 390.75 1160.69 526.179C1265.4 661.608 1262.36 859.726 1173.01 1070.45C1083.65 1281.19 907.923 1504.65 667.02 1690.91Z" stroke="#A4DED6"/>
<path d="M667.02 1690.91C426.118 1877.17 165.616 1990.99 -60.8329 2024.43C-287.264 2057.86 -479.766 2010.92 -584.476 1875.49C-689.186 1740.06 -686.153 1541.94 -596.801 1331.22C-507.442 1120.48 -331.713 897.016 -90.8105 710.757C150.092 524.498 410.594 410.678 637.043 377.245C863.474 343.814 1055.98 390.75 1160.69 526.179C1265.4 661.607 1262.36 859.726 1173.01 1070.45C1083.65 1281.19 907.923 1504.65 667.02 1690.91Z" stroke="#A4DED6"/>
<path d="M780.951 1576.14C596.465 1818.41 374.298 1995.77 164.218 2086.67C-45.8449 2177.57 -243.936 2182.06 -380.129 2078.34C-516.323 1974.63 -564.67 1782.48 -532.902 1555.81C-501.132 1329.12 -389.227 1067.79 -204.74 825.526C-20.2541 583.264 201.913 405.899 411.993 314.996C622.056 224.1 820.146 219.613 956.34 323.326C1092.53 427.039 1140.88 619.192 1109.11 845.862C1077.34 1072.55 965.438 1333.88 780.951 1576.14Z" stroke="#A4DED6"/>
<path d="M861.295 1435.8C745.797 1717.55 577.106 1946.38 397.711 2088.55C218.332 2230.72 28.1521 2286.33 -130.244 2221.4C-288.64 2156.47 -385.072 1983.37 -413.053 1756.2C-441.037 1529.02 -400.582 1247.63 -285.084 965.873C-169.586 684.116 -0.895001 455.294 178.499 313.116C357.879 170.949 548.058 115.345 706.454 180.275C864.85 245.205 961.283 418.297 989.264 645.465C1017.25 872.652 976.793 1154.04 861.295 1435.8Z" stroke="#A4DED6"/>
<path d="M902.576 1279.44C863.938 1581.49 760.218 1846.17 623.735 2029.94C487.263 2213.69 317.955 2316.62 148.151 2294.9C-21.6529 2273.18 -159.599 2130.94 -245.422 1918.75C-331.253 1706.55 -365.005 1424.28 -326.367 1122.23C-287.728 820.183 -184.008 555.497 -47.5253 371.733C88.9467 187.983 258.255 85.0516 428.059 106.773C597.862 128.495 735.808 270.73 821.632 482.916C907.462 695.119 941.215 977.39 902.576 1279.44Z" stroke="#A4DED6"/>
<path d="M902.576 1279.44C863.938 1581.49 760.218 1846.17 623.735 2029.94C487.263 2213.69 317.955 2316.62 148.151 2294.9C-21.6529 2273.18 -159.599 2130.94 -245.422 1918.75C-331.253 1706.55 -365.005 1424.28 -326.367 1122.23C-287.728 820.183 -184.008 555.497 -47.5253 371.733C88.9467 187.983 258.255 85.0516 428.059 106.773C597.862 128.495 735.808 270.73 821.632 482.916C907.462 695.119 941.215 977.39 902.576 1279.44Z" stroke="#A4DED6"/>
<path d="M901.983 1117.72C942.837 1419.48 911.157 1701.99 826.886 1914.82C742.622 2127.63 605.724 2270.87 436.084 2293.84C266.444 2316.81 96.3852 2215.12 -41.4316 2032.38C-179.259 1849.62 -284.919 1585.7 -325.773 1283.95C-366.627 982.189 -334.947 699.678 -250.677 486.851C-166.413 274.041 -29.5143 130.796 140.126 107.829C309.765 84.8623 479.824 186.548 617.641 369.291C755.469 552.049 861.128 815.967 901.983 1117.72Z" stroke="#A4DED6"/>
<path d="M-283.345 1440C-400.907 1159.1 -443.426 878.012 -417.111 650.626C-390.797 423.258 -295.638 249.463 -137.723 183.373C20.1926 117.282 210.775 171.489 391.193 312.336C571.626 453.194 741.992 680.771 859.555 961.673C977.117 1242.57 1019.64 1523.66 993.321 1751.04C967.007 1978.41 871.848 2152.21 713.933 2218.3C556.017 2284.39 365.435 2230.18 185.017 2089.34C4.58392 1948.48 -165.782 1720.9 -283.345 1440Z" stroke="#A4DED6"/>
<path d="M-201.974 1579.75C-388.233 1338.85 -502.053 1078.35 -535.486 851.898C-568.917 625.467 -521.981 432.965 -386.552 328.255C-251.123 223.545 -53.0051 226.578 157.719 315.93C368.461 405.289 591.923 581.018 778.183 821.92C964.442 1062.82 1078.26 1323.32 1111.69 1549.77C1145.13 1776.2 1098.19 1968.71 962.761 2073.42C827.332 2178.13 629.214 2175.09 418.489 2085.74C207.748 1996.38 -15.7145 1820.65 -201.974 1579.75Z" stroke="#A4DED6"/>
<path d="M-201.974 1579.75C-388.233 1338.85 -502.053 1078.35 -535.486 851.898C-568.917 625.467 -521.981 432.965 -386.552 328.255C-251.123 223.545 -53.0051 226.578 157.719 315.93C368.461 405.289 591.923 581.018 778.183 821.92C964.442 1062.82 1078.26 1323.32 1111.69 1549.77C1145.13 1776.2 1098.19 1968.71 962.761 2073.42C827.332 2178.13 629.214 2175.09 418.489 2085.74C207.748 1996.38 -15.7145 1820.65 -201.974 1579.75Z" stroke="#A4DED6"/>
<path d="M-87.2042 1693.68C-329.467 1509.2 -506.831 1287.03 -597.735 1076.95C-688.631 866.885 -693.118 668.795 -589.404 532.601C-485.691 396.407 -293.539 348.06 -66.8683 379.828C159.82 411.598 421.15 523.504 663.413 707.99C905.676 892.476 1083.04 1114.64 1173.94 1324.72C1264.84 1534.79 1269.33 1732.88 1165.61 1869.07C1061.9 2005.26 869.747 2053.61 643.077 2021.84C416.389 1990.07 155.059 1878.17 -87.2042 1693.68Z" stroke="#A4DED6"/>
<path d="M53.1428 1774.02C-228.614 1658.53 -457.436 1489.84 -599.614 1310.44C-741.781 1131.06 -797.385 940.882 -732.455 782.486C-667.525 624.09 -494.433 527.658 -267.264 499.677C-40.0776 471.693 241.311 512.148 523.068 627.646C804.824 743.144 1033.65 911.835 1175.82 1091.23C1317.99 1270.61 1373.6 1460.79 1308.67 1619.18C1243.74 1777.58 1070.64 1874.01 843.475 1901.99C616.288 1929.98 334.899 1889.52 53.1428 1774.02Z" stroke="#A4DED6"/>
<path d="M209.501 1815.31C-92.5478 1776.67 -357.233 1672.95 -540.998 1536.47C-724.748 1399.99 -827.679 1230.68 -805.957 1060.88C-784.236 891.077 -642 753.131 -429.814 667.308C-217.611 581.478 64.6601 547.725 366.709 586.364C668.758 625.002 933.444 728.722 1117.21 865.205C1300.96 1001.68 1403.89 1170.98 1382.17 1340.79C1360.45 1510.59 1218.21 1648.54 1006.02 1734.36C793.821 1820.19 511.55 1853.94 209.501 1815.31Z" stroke="#A4DED6"/>
<path d="M209.501 1815.31C-92.5478 1776.67 -357.233 1672.95 -540.998 1536.47C-724.748 1399.99 -827.679 1230.68 -805.957 1060.88C-784.236 891.077 -642 753.131 -429.814 667.308C-217.611 581.478 64.6601 547.725 366.709 586.364C668.758 625.002 933.444 728.722 1117.21 865.205C1300.96 1001.68 1403.89 1170.98 1382.17 1340.79C1360.45 1510.59 1218.21 1648.54 1006.02 1734.36C793.821 1820.19 511.55 1853.94 209.501 1815.31Z" stroke="#A4DED6"/>
<path d="M371.216 1814.71C69.4591 1855.57 -213.052 1823.89 -425.879 1739.62C-638.689 1655.35 -781.934 1518.45 -804.901 1348.81C-827.868 1179.17 -726.182 1009.12 -543.438 871.299C-360.681 733.471 -96.7635 627.811 204.994 586.957C506.751 546.103 789.262 577.783 1002.09 662.054C1214.9 746.318 1358.14 883.216 1381.11 1052.86C1404.08 1222.5 1302.39 1392.55 1119.65 1530.37C936.891 1668.2 672.974 1773.86 371.216 1814.71Z" stroke="#A4DED6"/>
</g>
</g>
<defs>
<radialGradient id="paint0_radial_218_91" cx="0" cy="0" r="1" gradientUnits="userSpaceOnUse" gradientTransform="translate(901 688) rotate(90) scale(512 720)">
<stop stop-color="white"/>
<stop offset="1" stop-color="white" stop-opacity="0"/>
</radialGradient>
<radialGradient id="paint1_radial_218_91" cx="0" cy="0" r="1" gradientUnits="userSpaceOnUse" gradientTransform="translate(805.175 525.054) rotate(98.4681) scale(424.688 597.218)">
<stop stop-color="white"/>
<stop offset="1" stop-color="white" stop-opacity="0"/>
</radialGradient>
<clipPath id="clip0_218_91">
<rect width="1440" height="1024" fill="white"/>
</clipPath>
</defs>
</svg>
