<svg width="558" height="120" viewBox="0 0 558 120" fill="none" xmlns="http://www.w3.org/2000/svg">
<rect width="120" height="120" rx="9.6" fill="#5465FF"/>
<g filter="url(#filter0_d_206_48)">
<path d="M27.5333 81.2335L17.944 102.056L39.3145 93.0147M27.5333 81.2335L39.3145 93.0147M27.5333 81.2335L34.1088 74.658M39.3145 93.0147L45.616 86.7131M97.2615 29.3141L100.138 32.1909L84.7953 47.5339M97.2615 29.3141L102.056 24.5195L95.4806 17.9439L90.6859 22.7386M97.2615 29.3141L90.6859 22.7386M90.6859 22.7386L88.3571 20.4098L73.2881 35.4787M84.7953 47.5339V102.056M84.7953 47.5339L45.616 86.7131M100.138 86.7131H45.616M34.1088 20.4098V74.658M34.1088 74.658L73.2881 35.4787M17.944 35.4787H73.2881" stroke="white" stroke-width="4.8" stroke-linecap="square" stroke-linejoin="round" shape-rendering="crispEdges"/>
</g>
<path d="M159.8 91.5V28.1H136.9V18.6H193.8V28.1H170.7V91.5H159.8ZM191.458 108.2V99.7H197.158C198.691 99.7 199.991 99.4667 201.058 99C202.191 98.6 203.158 97.9333 203.958 97C204.758 96.1333 205.424 95 205.958 93.6L209.158 85.4V89.9L187.458 38.6H198.758L210.858 70.8L213.058 77.1H213.458L215.558 70.8L226.958 38.6H237.858L215.858 96.1C214.724 99.1 213.358 101.467 211.758 103.2C210.224 105 208.391 106.267 206.258 107C204.124 107.8 201.658 108.2 198.858 108.2H191.458ZM244.763 108.2V38.6H254.663L255.063 49H255.663C256.929 45.6 259.129 42.8667 262.263 40.8C265.463 38.7333 269.263 37.7 273.663 37.7C276.863 37.7 279.763 38.3 282.363 39.5C285.029 40.7 287.329 42.4667 289.263 44.8C291.196 47.1333 292.663 50 293.663 53.4C294.729 56.8 295.263 60.7 295.263 65.1C295.263 70.9667 294.363 75.9333 292.563 80C290.763 84.0667 288.229 87.1667 284.963 89.3C281.763 91.3667 277.996 92.4 273.663 92.4C270.796 92.4 268.129 91.9333 265.663 91C263.263 90.0667 261.196 88.7667 259.463 87.1C257.796 85.3667 256.529 83.3667 255.663 81.1H255.063V108.2H244.763ZM270.063 83.9C272.996 83.9 275.563 83.2 277.763 81.8C279.963 80.4 281.663 78.3 282.863 75.5C284.129 72.7 284.763 69.2333 284.763 65.1C284.763 60.9 284.129 57.4333 282.863 54.7C281.663 51.9 279.963 49.8 277.763 48.4C275.563 46.9333 272.996 46.2 270.063 46.2C266.863 46.2 264.129 46.9667 261.863 48.5C259.663 49.9667 257.996 51.9333 256.863 54.4C255.729 56.8 255.163 59.3667 255.163 62.1V68C255.163 70.0667 255.463 72.0667 256.063 74C256.729 75.8667 257.696 77.5667 258.963 79.1C260.229 80.5667 261.796 81.7333 263.663 82.6C265.529 83.4667 267.663 83.9 270.063 83.9ZM329.165 92.4C323.898 92.4 319.332 91.3 315.465 89.1C311.665 86.8333 308.732 83.6667 306.665 79.6C304.598 75.4667 303.565 70.7 303.565 65.3C303.565 59.7 304.598 54.8333 306.665 50.7C308.732 46.5667 311.632 43.4 315.365 41.2C319.165 38.9333 323.632 37.8 328.765 37.8C334.565 37.8 339.332 39.1 343.065 41.7C346.865 44.2333 349.598 47.7333 351.265 52.2C352.932 56.6 353.498 61.5667 352.965 67.1H313.765C313.832 70.7 314.498 73.8 315.765 76.4C317.032 78.9333 318.798 80.8667 321.065 82.2C323.398 83.5333 326.098 84.2 329.165 84.2C332.698 84.2 335.698 83.4 338.165 81.8C340.632 80.1333 342.198 77.9333 342.865 75.2H352.665C352.198 78.6667 350.898 81.7 348.765 84.3C346.632 86.8333 343.865 88.8333 340.465 90.3C337.132 91.7 333.365 92.4 329.165 92.4ZM313.865 61.3L312.865 59.8H343.865L342.865 61.5C342.998 57.8333 342.432 54.8667 341.165 52.6C339.965 50.2667 338.265 48.5667 336.065 47.5C333.932 46.4333 331.465 45.9 328.665 45.9C325.732 45.9 323.165 46.5333 320.965 47.8C318.765 49 317.065 50.7667 315.865 53.1C314.665 55.4333 313.998 58.1667 313.865 61.3ZM364.098 91.5V18.6H374.398V91.5H364.098ZM406.708 92.4C403.508 92.4 400.574 91.8 397.908 90.6C395.308 89.4 393.041 87.6667 391.108 85.4C389.174 83.0667 387.674 80.2 386.608 76.8C385.608 73.4 385.108 69.4667 385.108 65C385.108 59.1333 386.008 54.1667 387.808 50.1C389.674 46.0333 392.208 42.9667 395.408 40.9C398.674 38.7667 402.441 37.7 406.708 37.7C409.641 37.7 412.308 38.1667 414.708 39.1C417.174 40.0333 419.241 41.3667 420.908 43.1C422.641 44.7667 423.908 46.7333 424.708 49H425.308L425.708 38.6H435.608V91.5H425.308V81H424.708C423.441 84.4 421.241 87.1667 418.108 89.3C414.974 91.3667 411.174 92.4 406.708 92.4ZM410.308 83.9C413.574 83.9 416.308 83.1333 418.508 81.6C420.708 80.0667 422.374 78.1 423.508 75.7C424.641 73.3 425.208 70.7333 425.208 68V62C425.208 59.2667 424.641 56.7 423.508 54.3C422.374 51.9 420.708 49.9333 418.508 48.4C416.308 46.8667 413.574 46.1 410.308 46.1C407.374 46.1 404.808 46.8333 402.608 48.3C400.408 49.7 398.708 51.8 397.508 54.6C396.308 57.3333 395.708 60.8 395.708 65C395.708 69.1333 396.308 72.6 397.508 75.4C398.708 78.2 400.408 80.3333 402.608 81.8C404.808 83.2 407.374 83.9 410.308 83.9ZM478.936 92.4C476.003 92.4 473.303 91.9333 470.836 91C468.436 90.0667 466.403 88.7667 464.736 87.1C463.069 85.3667 461.803 83.3667 460.936 81.1H460.336L459.936 91.5H450.036V18.6H460.336V49H460.936C462.203 45.6 464.403 42.8667 467.536 40.8C470.669 38.7333 474.469 37.7 478.936 37.7C482.136 37.7 485.036 38.3 487.636 39.5C490.303 40.7 492.603 42.4667 494.536 44.8C496.469 47.1333 497.936 50 498.936 53.4C500.003 56.8 500.536 60.7 500.536 65.1C500.536 70.9667 499.603 75.9333 497.736 80C495.936 84.0667 493.403 87.1667 490.136 89.3C486.936 91.3667 483.203 92.4 478.936 92.4ZM475.336 83.9C478.269 83.9 480.836 83.2 483.036 81.8C485.236 80.4 486.936 78.3 488.136 75.5C489.336 72.7 489.936 69.2333 489.936 65.1C489.936 61.9667 489.569 59.2333 488.836 56.9C488.169 54.5 487.203 52.5333 485.936 51C484.669 49.4 483.136 48.2 481.336 47.4C479.536 46.6 477.536 46.2 475.336 46.2C472.069 46.2 469.303 46.9667 467.036 48.5C464.836 49.9667 463.169 51.9333 462.036 54.4C460.969 56.8 460.436 59.3667 460.436 62.1V68C460.436 70.7333 460.969 73.3333 462.036 75.8C463.169 78.2 464.836 80.1667 467.036 81.7C469.303 83.1667 472.069 83.9 475.336 83.9ZM531.064 92.5C523.797 92.5 518.197 90.9 514.264 87.7C510.397 84.4333 508.464 80.1667 508.464 74.9H518.664C518.664 78.5 519.864 81.1333 522.264 82.8C524.664 84.4 527.697 85.2 531.364 85.2C535.164 85.2 538.031 84.5333 539.964 83.2C541.964 81.8 542.964 79.8667 542.964 77.4C542.964 75.4 542.531 73.8667 541.664 72.8C540.797 71.7333 539.431 70.9333 537.564 70.4C535.697 69.8 533.264 69.2667 530.264 68.8C527.264 68.4 524.531 67.9 522.064 67.3C519.597 66.6333 517.431 65.7333 515.564 64.6C513.764 63.4667 512.364 62 511.364 60.2C510.431 58.4 509.964 56.1667 509.964 53.5C509.964 50.1 510.831 47.2333 512.564 44.9C514.364 42.5667 516.864 40.7667 520.064 39.5C523.264 38.2333 526.997 37.6 531.264 37.6C535.664 37.6 539.397 38.2667 542.464 39.6C545.597 40.9333 547.997 42.8333 549.664 45.3C551.397 47.7667 552.297 50.7333 552.364 54.2H542.264C542.264 52.0667 541.797 50.3333 540.864 49C539.931 47.6 538.631 46.5667 536.964 45.9C535.297 45.2333 533.331 44.9 531.064 44.9C527.597 44.9 524.931 45.6 523.064 47C521.197 48.4 520.264 50.2333 520.264 52.5C520.264 54.1667 520.731 55.5333 521.664 56.6C522.597 57.6667 524.031 58.5 525.964 59.1C527.897 59.6333 530.331 60.1 533.264 60.5C536.064 60.9 538.664 61.4 541.064 62C543.464 62.6 545.597 63.4667 547.464 64.6C549.331 65.6667 550.797 67.1667 551.864 69.1C552.931 71.0333 553.464 73.5 553.464 76.5C553.464 81.9 551.464 85.9333 547.464 88.6C543.464 91.2 537.997 92.5 531.064 92.5Z" fill="black"/>
<defs>
<filter id="filter0_d_206_48" x="15.5439" y="15.5439" width="88.9122" height="89.9122" filterUnits="userSpaceOnUse" color-interpolation-filters="sRGB">
<feFlood flood-opacity="0" result="BackgroundImageFix"/>
<feColorMatrix in="SourceAlpha" type="matrix" values="0 0 0 0 0 0 0 0 0 0 0 0 0 0 0 0 0 0 127 0" result="hardAlpha"/>
<feOffset dy="1"/>
<feComposite in2="hardAlpha" operator="out"/>
<feColorMatrix type="matrix" values="0 0 0 0 0 0 0 0 0 0 0 0 0 0 0 0 0 0 0.25 0"/>
<feBlend mode="normal" in2="BackgroundImageFix" result="effect1_dropShadow_206_48"/>
<feBlend mode="normal" in="SourceGraphic" in2="effect1_dropShadow_206_48" result="shape"/>
</filter>
</defs>
</svg>
