<svg width="588" height="150" viewBox="0 0 588 150" fill="none" xmlns="http://www.w3.org/2000/svg">
<g id="Logo">
<g id="Icon">
<rect width="150" height="150" rx="12" fill="#5465FF"/>
<path id="Vector 1" d="M34.4165 101.542L22.4299 127.57L49.143 116.268M34.4165 101.542L49.143 116.268M34.4165 101.542L42.636 93.3224M49.143 116.268L57.02 108.391M121.577 36.6426L125.173 40.2386L105.994 59.4173M121.577 36.6426L127.57 30.6493L119.351 22.4299L113.357 28.4232M121.577 36.6426L113.357 28.4232M113.357 28.4232L110.446 25.5122L91.6101 44.3483M105.994 59.4173V127.57M105.994 59.4173L57.02 108.391M125.173 108.391H57.02M42.636 25.5122V93.3224M42.636 93.3224L91.6101 44.3483M22.4299 44.3483H91.6101" stroke="white" stroke-width="6" stroke-linecap="square" stroke-linejoin="round"/>
</g>
<path id="Typelabs" d="M189.8 106.5V43.1H166.9V33.6H223.8V43.1H200.7V106.5H189.8ZM221.458 123.2V114.7H227.158C228.691 114.7 229.991 114.467 231.058 114C232.191 113.6 233.158 112.933 233.958 112C234.758 111.133 235.424 110 235.958 108.6L239.158 100.4V104.9L217.458 53.6H228.758L240.858 85.8L243.058 92.1H243.458L245.558 85.8L256.958 53.6H267.858L245.858 111.1C244.724 114.1 243.358 116.467 241.758 118.2C240.224 120 238.391 121.267 236.258 122C234.124 122.8 231.658 123.2 228.858 123.2H221.458ZM274.763 123.2V53.6H284.663L285.063 64H285.663C286.929 60.6 289.129 57.8667 292.263 55.8C295.463 53.7333 299.263 52.7 303.663 52.7C306.863 52.7 309.763 53.3 312.363 54.5C315.029 55.7 317.329 57.4667 319.263 59.8C321.196 62.1333 322.663 65 323.663 68.4C324.729 71.8 325.263 75.7 325.263 80.1C325.263 85.9667 324.363 90.9333 322.563 95C320.763 99.0667 318.229 102.167 314.963 104.3C311.763 106.367 307.996 107.4 303.663 107.4C300.796 107.4 298.129 106.933 295.663 106C293.263 105.067 291.196 103.767 289.463 102.1C287.796 100.367 286.529 98.3667 285.663 96.1H285.063V123.2H274.763ZM300.063 98.9C302.996 98.9 305.563 98.2 307.763 96.8C309.963 95.4 311.663 93.3 312.863 90.5C314.129 87.7 314.763 84.2333 314.763 80.1C314.763 75.9 314.129 72.4333 312.863 69.7C311.663 66.9 309.963 64.8 307.763 63.4C305.563 61.9333 302.996 61.2 300.063 61.2C296.863 61.2 294.129 61.9667 291.863 63.5C289.663 64.9667 287.996 66.9333 286.863 69.4C285.729 71.8 285.163 74.3667 285.163 77.1V83C285.163 85.0667 285.463 87.0667 286.063 89C286.729 90.8667 287.696 92.5667 288.963 94.1C290.229 95.5667 291.796 96.7333 293.663 97.6C295.529 98.4667 297.663 98.9 300.063 98.9ZM359.165 107.4C353.898 107.4 349.332 106.3 345.465 104.1C341.665 101.833 338.732 98.6667 336.665 94.6C334.598 90.4667 333.565 85.7 333.565 80.3C333.565 74.7 334.598 69.8333 336.665 65.7C338.732 61.5667 341.632 58.4 345.365 56.2C349.165 53.9333 353.632 52.8 358.765 52.8C364.565 52.8 369.332 54.1 373.065 56.7C376.865 59.2333 379.598 62.7333 381.265 67.2C382.932 71.6 383.498 76.5667 382.965 82.1H343.765C343.832 85.7 344.498 88.8 345.765 91.4C347.032 93.9333 348.798 95.8667 351.065 97.2C353.398 98.5333 356.098 99.2 359.165 99.2C362.698 99.2 365.698 98.4 368.165 96.8C370.632 95.1333 372.198 92.9333 372.865 90.2H382.665C382.198 93.6667 380.898 96.7 378.765 99.3C376.632 101.833 373.865 103.833 370.465 105.3C367.132 106.7 363.365 107.4 359.165 107.4ZM343.865 76.3L342.865 74.8H373.865L372.865 76.5C372.998 72.8333 372.432 69.8667 371.165 67.6C369.965 65.2667 368.265 63.5667 366.065 62.5C363.932 61.4333 361.465 60.9 358.665 60.9C355.732 60.9 353.165 61.5333 350.965 62.8C348.765 64 347.065 65.7667 345.865 68.1C344.665 70.4333 343.998 73.1667 343.865 76.3ZM394.098 106.5V33.6H404.398V106.5H394.098ZM436.708 107.4C433.508 107.4 430.574 106.8 427.908 105.6C425.308 104.4 423.041 102.667 421.108 100.4C419.174 98.0667 417.674 95.2 416.608 91.8C415.608 88.4 415.108 84.4667 415.108 80C415.108 74.1333 416.008 69.1667 417.808 65.1C419.674 61.0333 422.208 57.9667 425.408 55.9C428.674 53.7667 432.441 52.7 436.708 52.7C439.641 52.7 442.308 53.1667 444.708 54.1C447.174 55.0333 449.241 56.3667 450.908 58.1C452.641 59.7667 453.908 61.7333 454.708 64H455.308L455.708 53.6H465.608V106.5H455.308V96H454.708C453.441 99.4 451.241 102.167 448.108 104.3C444.974 106.367 441.174 107.4 436.708 107.4ZM440.308 98.9C443.574 98.9 446.308 98.1333 448.508 96.6C450.708 95.0667 452.374 93.1 453.508 90.7C454.641 88.3 455.208 85.7333 455.208 83V77C455.208 74.2667 454.641 71.7 453.508 69.3C452.374 66.9 450.708 64.9333 448.508 63.4C446.308 61.8667 443.574 61.1 440.308 61.1C437.374 61.1 434.808 61.8333 432.608 63.3C430.408 64.7 428.708 66.8 427.508 69.6C426.308 72.3333 425.708 75.8 425.708 80C425.708 84.1333 426.308 87.6 427.508 90.4C428.708 93.2 430.408 95.3333 432.608 96.8C434.808 98.2 437.374 98.9 440.308 98.9ZM508.936 107.4C506.003 107.4 503.303 106.933 500.836 106C498.436 105.067 496.403 103.767 494.736 102.1C493.069 100.367 491.803 98.3667 490.936 96.1H490.336L489.936 106.5H480.036V33.6H490.336V64H490.936C492.203 60.6 494.403 57.8667 497.536 55.8C500.669 53.7333 504.469 52.7 508.936 52.7C512.136 52.7 515.036 53.3 517.636 54.5C520.303 55.7 522.603 57.4667 524.536 59.8C526.469 62.1333 527.936 65 528.936 68.4C530.003 71.8 530.536 75.7 530.536 80.1C530.536 85.9667 529.603 90.9333 527.736 95C525.936 99.0667 523.403 102.167 520.136 104.3C516.936 106.367 513.203 107.4 508.936 107.4ZM505.336 98.9C508.269 98.9 510.836 98.2 513.036 96.8C515.236 95.4 516.936 93.3 518.136 90.5C519.336 87.7 519.936 84.2333 519.936 80.1C519.936 76.9667 519.569 74.2333 518.836 71.9C518.169 69.5 517.203 67.5333 515.936 66C514.669 64.4 513.136 63.2 511.336 62.4C509.536 61.6 507.536 61.2 505.336 61.2C502.069 61.2 499.303 61.9667 497.036 63.5C494.836 64.9667 493.169 66.9333 492.036 69.4C490.969 71.8 490.436 74.3667 490.436 77.1V83C490.436 85.7333 490.969 88.3333 492.036 90.8C493.169 93.2 494.836 95.1667 497.036 96.7C499.303 98.1667 502.069 98.9 505.336 98.9ZM561.064 107.5C553.797 107.5 548.197 105.9 544.264 102.7C540.397 99.4333 538.464 95.1667 538.464 89.9H548.664C548.664 93.5 549.864 96.1333 552.264 97.8C554.664 99.4 557.697 100.2 561.364 100.2C565.164 100.2 568.031 99.5333 569.964 98.2C571.964 96.8 572.964 94.8667 572.964 92.4C572.964 90.4 572.531 88.8667 571.664 87.8C570.797 86.7333 569.431 85.9333 567.564 85.4C565.697 84.8 563.264 84.2667 560.264 83.8C557.264 83.4 554.531 82.9 552.064 82.3C549.597 81.6333 547.431 80.7333 545.564 79.6C543.764 78.4667 542.364 77 541.364 75.2C540.431 73.4 539.964 71.1667 539.964 68.5C539.964 65.1 540.831 62.2333 542.564 59.9C544.364 57.5667 546.864 55.7667 550.064 54.5C553.264 53.2333 556.997 52.6 561.264 52.6C565.664 52.6 569.397 53.2667 572.464 54.6C575.597 55.9333 577.997 57.8333 579.664 60.3C581.397 62.7667 582.297 65.7333 582.364 69.2H572.264C572.264 67.0667 571.797 65.3333 570.864 64C569.931 62.6 568.631 61.5667 566.964 60.9C565.297 60.2333 563.331 59.9 561.064 59.9C557.597 59.9 554.931 60.6 553.064 62C551.197 63.4 550.264 65.2333 550.264 67.5C550.264 69.1667 550.731 70.5333 551.664 71.6C552.597 72.6667 554.031 73.5 555.964 74.1C557.897 74.6333 560.331 75.1 563.264 75.5C566.064 75.9 568.664 76.4 571.064 77C573.464 77.6 575.597 78.4667 577.464 79.6C579.331 80.6667 580.797 82.1667 581.864 84.1C582.931 86.0333 583.464 88.5 583.464 91.5C583.464 96.9 581.464 100.933 577.464 103.6C573.464 106.2 567.997 107.5 561.064 107.5Z" fill="black"/>
</g>
</svg>
