<svg width="167" height="44" viewBox="0 0 167 44" fill="none" xmlns="http://www.w3.org/2000/svg">
<path d="M11.3602 32.0977L6.79999 42L16.9629 37.7003M11.3602 32.0977L16.9629 37.7003M11.3602 32.0977L14.4873 28.9707M16.9629 37.7003L19.9596 34.7036M44.5199 7.40717L45.8879 8.77524L38.5915 16.0717M44.5199 7.40717L46.8 5.12704L43.673 2L41.3928 4.28013M44.5199 7.40717L41.3928 4.28013M41.3928 4.28013L40.2853 3.17264L33.1192 10.3388M38.5915 16.0717V42M38.5915 16.0717L19.9596 34.7036M45.8879 34.7036H19.9596M14.4873 3.17264V28.9707M14.4873 28.9707L33.1192 10.3388M6.79999 10.3388H33.1192" stroke="#39A5A5" stroke-width="2.13333" stroke-linecap="square" stroke-linejoin="round"/>
<path d="M58.5867 31V16.3333H53.9467V14.36H65.6533V16.3333H60.8267V31H58.5867ZM69.92 35.6667C69.3333 35.6667 68.8 35.5689 68.32 35.3733C67.8578 35.1956 67.44 34.9289 67.0667 34.5733L67.9467 33.0267L68.1067 32.7867L68.2933 32.8933C68.3289 33.0356 68.3911 33.16 68.48 33.2667C68.5689 33.3733 68.7289 33.5067 68.96 33.6667C69.12 33.72 69.28 33.7556 69.44 33.7733C69.6178 33.8089 69.7956 33.8267 69.9733 33.8267C70.4178 33.8267 70.7911 33.72 71.0933 33.5067C71.3956 33.2933 71.6622 32.9556 71.8933 32.4933C72.1422 32.0311 72.3822 31.4533 72.6133 30.76L75.0667 23.4533C75.3333 22.6533 75.5733 21.8711 75.7867 21.1067C76.0178 20.3244 76.1689 19.5333 76.24 18.7333H78.4533C78.3467 19.5511 78.1511 20.3867 77.8667 21.24C77.6 22.0933 77.3156 22.9289 77.0133 23.7467L73.9733 32.28C73.5111 33.5244 72.9422 34.3956 72.2667 34.8933C71.5911 35.4089 70.8089 35.6667 69.92 35.6667ZM67.6267 18.7333H69.9733L73.8133 28.68L72.72 31.32L67.6267 18.7333ZM81.36 35.4533V18.7333H83.6533V20.92C83.8667 20.3511 84.1511 19.8889 84.5067 19.5333C84.88 19.16 85.2978 18.8933 85.76 18.7333C86.24 18.5556 86.7467 18.4667 87.28 18.4667C87.9556 18.4667 88.5956 18.6 89.2 18.8667C89.8045 19.1333 90.3378 19.5333 90.8 20.0667C91.2622 20.5822 91.6267 21.24 91.8933 22.04C92.1778 22.8222 92.32 23.7467 92.32 24.8133C92.32 25.8978 92.1778 26.8489 91.8933 27.6667C91.6089 28.4844 91.2178 29.16 90.72 29.6933C90.24 30.2267 89.6978 30.6356 89.0933 30.92C88.4889 31.1867 87.8667 31.32 87.2267 31.32C86.7645 31.32 86.3111 31.2489 85.8667 31.1067C85.4222 30.9822 85.0133 30.7867 84.64 30.52C84.2845 30.2533 83.9733 29.9422 83.7067 29.5867V35.4533H81.36ZM86.7467 29.4C87.1556 29.4 87.5467 29.3289 87.92 29.1867C88.3111 29.0267 88.6578 28.7778 88.96 28.44C89.28 28.0844 89.5289 27.6133 89.7067 27.0267C89.8845 26.44 89.9733 25.7022 89.9733 24.8133C89.9733 23.8889 89.8578 23.1067 89.6267 22.4667C89.3956 21.8089 89.0578 21.3022 88.6133 20.9467C88.1689 20.5911 87.6267 20.3956 86.9867 20.36C86.5067 20.3244 86.0622 20.3956 85.6533 20.5733C85.2622 20.7511 84.9156 21.0356 84.6133 21.4267C84.3111 21.8178 84.08 22.3244 83.92 22.9467C83.76 23.5689 83.68 24.3244 83.68 25.2133C83.6978 25.7822 83.7511 26.2889 83.84 26.7333C83.9289 27.1778 84.0622 27.5689 84.24 27.9067C84.4178 28.2444 84.6222 28.52 84.8533 28.7333C85.1022 28.9467 85.3867 29.1156 85.7067 29.24C86.0267 29.3467 86.3733 29.4 86.7467 29.4ZM100.453 31.2667C99.5645 31.2667 98.7467 31.1333 98 30.8667C97.2711 30.5822 96.6311 30.1733 96.08 29.64C95.5467 29.1067 95.1378 28.44 94.8533 27.64C94.5689 26.84 94.4267 25.9333 94.4267 24.92C94.4267 23.8889 94.5689 22.9733 94.8533 22.1733C95.1556 21.3733 95.5645 20.6978 96.08 20.1467C96.5956 19.5956 97.2 19.1778 97.8933 18.8933C98.5867 18.5911 99.3245 18.44 100.107 18.44C100.8 18.44 101.458 18.5644 102.08 18.8133C102.702 19.0444 103.236 19.4 103.68 19.88C104.142 20.36 104.507 20.9733 104.773 21.72C105.04 22.4489 105.173 23.3111 105.173 24.3067C105.173 24.4667 105.164 24.6444 105.147 24.84C105.147 25.0178 105.138 25.1778 105.12 25.32H96.6133C96.6489 26.0489 96.7733 26.68 96.9867 27.2133C97.2178 27.7289 97.5111 28.1556 97.8667 28.4933C98.2222 28.8133 98.6222 29.0533 99.0667 29.2133C99.5289 29.3733 100.018 29.4533 100.533 29.4533C100.942 29.4533 101.324 29.4089 101.68 29.32C102.053 29.2311 102.4 29.0889 102.72 28.8933C103.04 28.6978 103.333 28.4578 103.6 28.1733L104.827 29.3467C104.471 29.7733 104.062 30.1378 103.6 30.44C103.156 30.7244 102.667 30.9289 102.133 31.0533C101.618 31.1956 101.058 31.2667 100.453 31.2667ZM96.6933 23.5867H102.907C102.907 23.0533 102.836 22.5822 102.693 22.1733C102.551 21.7644 102.356 21.4089 102.107 21.1067C101.858 20.8044 101.547 20.5822 101.173 20.44C100.818 20.28 100.418 20.2 99.9733 20.2C99.5645 20.2 99.1822 20.2711 98.8267 20.4133C98.4711 20.5378 98.1422 20.7422 97.84 21.0267C97.5556 21.3111 97.3067 21.6667 97.0933 22.0933C96.8978 22.5022 96.7645 23 96.6933 23.5867ZM108.507 31V29.1867H112.053V15.0267H108.667V13.2133H114.373V29.1867H117.92V31H108.507ZM125.387 31.2933C124 31.2933 122.933 30.9822 122.187 30.36C121.44 29.72 121.067 28.9022 121.067 27.9067C121.067 27.2489 121.218 26.6533 121.52 26.12C121.84 25.5689 122.284 25.1067 122.853 24.7333C123.422 24.36 124.098 24.0756 124.88 23.88C125.662 23.6667 126.524 23.56 127.467 23.56C127.716 23.56 127.973 23.56 128.24 23.56C128.524 23.56 128.818 23.5778 129.12 23.6133C129.44 23.6311 129.76 23.6578 130.08 23.6933L130.16 25.3733C129.876 25.3378 129.582 25.3111 129.28 25.2933C128.978 25.2578 128.676 25.24 128.373 25.24C128.089 25.2222 127.813 25.2133 127.547 25.2133C126.889 25.2133 126.293 25.2667 125.76 25.3733C125.244 25.48 124.809 25.64 124.453 25.8533C124.098 26.0489 123.822 26.3067 123.627 26.6267C123.431 26.9289 123.333 27.2844 123.333 27.6933C123.333 28.0489 123.396 28.3422 123.52 28.5733C123.644 28.8044 123.813 28.9911 124.027 29.1333C124.24 29.2756 124.489 29.3822 124.773 29.4533C125.058 29.5067 125.369 29.5333 125.707 29.5333C126.347 29.5333 126.907 29.4356 127.387 29.24C127.884 29.0267 128.302 28.7156 128.64 28.3067C128.996 27.8978 129.262 27.4 129.44 26.8133C129.618 26.2089 129.707 25.5067 129.707 24.7067C129.707 23.5689 129.573 22.68 129.307 22.04C129.058 21.4 128.676 20.9556 128.16 20.7067C127.644 20.44 126.996 20.3067 126.213 20.3067C125.627 20.3067 125.058 20.4133 124.507 20.6267C123.973 20.8222 123.467 21.16 122.987 21.64L121.813 20.2267C122.436 19.6222 123.138 19.1778 123.92 18.8933C124.702 18.6089 125.511 18.4667 126.347 18.4667C127.147 18.4667 127.876 18.5644 128.533 18.76C129.191 18.9378 129.76 19.2489 130.24 19.6933C130.738 20.1378 131.12 20.7333 131.387 21.48C131.653 22.2267 131.787 23.1689 131.787 24.3067V31H129.36V29.32C129.129 29.7111 128.853 30.04 128.533 30.3067C128.231 30.5556 127.902 30.7511 127.547 30.8933C127.209 31.0356 126.853 31.1333 126.48 31.1867C126.107 31.2578 125.742 31.2933 125.387 31.2933ZM140.4 31.2933C139.92 31.2933 139.467 31.2222 139.04 31.08C138.613 30.9378 138.213 30.7333 137.84 30.4667C137.484 30.1822 137.164 29.8533 136.88 29.48L136.267 31H134.693V13.2133H136.987H137.253V13.4267C137.147 13.5333 137.076 13.6489 137.04 13.7733C137.022 13.8978 137.013 14.1111 137.013 14.4133V20.44C137.209 20.1556 137.431 19.8889 137.68 19.64C137.929 19.3911 138.204 19.1778 138.507 19C138.827 18.8044 139.156 18.6622 139.493 18.5733C139.831 18.4844 140.169 18.44 140.507 18.44C141.253 18.44 141.929 18.5733 142.533 18.84C143.156 19.1067 143.689 19.5067 144.133 20.04C144.578 20.5556 144.916 21.2044 145.147 21.9867C145.396 22.7689 145.52 23.6844 145.52 24.7333C145.52 25.8356 145.378 26.8044 145.093 27.64C144.809 28.4578 144.427 29.1422 143.947 29.6933C143.467 30.2267 142.916 30.6267 142.293 30.8933C141.689 31.16 141.058 31.2933 140.4 31.2933ZM140.053 29.3733C140.462 29.3733 140.853 29.3022 141.227 29.16C141.6 29 141.938 28.7422 142.24 28.3867C142.542 28.0311 142.773 27.5689 142.933 27C143.111 26.4133 143.2 25.7111 143.2 24.8933C143.2 24.1289 143.12 23.4622 142.96 22.8933C142.818 22.3067 142.613 21.8267 142.347 21.4533C142.08 21.0622 141.751 20.7778 141.36 20.6C140.987 20.4044 140.569 20.3067 140.107 20.3067C139.484 20.3067 138.942 20.4933 138.48 20.8667C138.018 21.24 137.653 21.7733 137.387 22.4667C137.138 23.16 137.013 23.96 137.013 24.8667C137.013 25.56 137.067 26.1822 137.173 26.7333C137.298 27.2844 137.476 27.7644 137.707 28.1733C137.956 28.5644 138.267 28.8667 138.64 29.08C139.031 29.2756 139.502 29.3733 140.053 29.3733ZM153.307 31.2667C152.596 31.2667 151.92 31.1956 151.28 31.0533C150.64 30.9289 150.044 30.7244 149.493 30.44C148.942 30.1378 148.427 29.7733 147.947 29.3467L149.093 27.32L149.253 27.08L149.413 27.1867C149.467 27.3289 149.511 27.48 149.547 27.64C149.6 27.7822 149.724 27.96 149.92 28.1733C150.329 28.5467 150.8 28.8489 151.333 29.08C151.867 29.3111 152.542 29.4267 153.36 29.4267C153.964 29.4267 154.471 29.3556 154.88 29.2133C155.307 29.0533 155.627 28.8489 155.84 28.6C156.071 28.3333 156.187 28.0222 156.187 27.6667C156.187 27.4178 156.133 27.2044 156.027 27.0267C155.92 26.8311 155.751 26.6533 155.52 26.4933C155.289 26.3333 154.978 26.1733 154.587 26.0133C154.196 25.8356 153.724 25.6667 153.173 25.5067C152.267 25.24 151.467 24.9378 150.773 24.6C150.098 24.2444 149.573 23.8267 149.2 23.3467C148.827 22.8667 148.64 22.3156 148.64 21.6933C148.64 21.0356 148.818 20.4667 149.173 19.9867C149.547 19.5067 150.071 19.1333 150.747 18.8667C151.44 18.5822 152.276 18.44 153.253 18.44C153.804 18.44 154.311 18.4844 154.773 18.5733C155.236 18.6444 155.662 18.76 156.053 18.92C156.462 19.08 156.836 19.2844 157.173 19.5333C157.529 19.7644 157.858 20.04 158.16 20.36L156.933 21.9333L156.747 22.1467L156.613 22.0133C156.596 21.8711 156.551 21.7378 156.48 21.6133C156.427 21.4711 156.293 21.3022 156.08 21.1067C155.689 20.8044 155.244 20.5733 154.747 20.4133C154.267 20.2533 153.787 20.1733 153.307 20.1733C152.631 20.1733 152.044 20.2889 151.547 20.52C151.067 20.7511 150.827 21.1067 150.827 21.5867C150.827 21.8533 150.924 22.1022 151.12 22.3333C151.316 22.5644 151.653 22.7956 152.133 23.0267C152.613 23.2578 153.289 23.4889 154.16 23.72C155.156 24.0222 155.964 24.3422 156.587 24.68C157.209 25.0178 157.662 25.4089 157.947 25.8533C158.231 26.2978 158.373 26.8222 158.373 27.4267C158.373 28.1022 158.187 28.7422 157.813 29.3467C157.44 29.9333 156.871 30.4044 156.107 30.76C155.36 31.0978 154.427 31.2667 153.307 31.2667Z" fill="#39A5A5"/>
</svg>
